<?xml version="1.0" encoding="utf-8"?>
<!-- Generator: Adobe Illustrator 16.0.0, SVG Export Plug-In . SVG Version: 6.00 Build 0)  -->
<!DOCTYPE svg PUBLIC "-//W3C//DTD SVG 1.1//EN" "http://www.w3.org/Graphics/SVG/1.1/DTD/svg11.dtd">
<svg version="1.1" id="Icons" xmlns="http://www.w3.org/2000/svg" xmlns:xlink="http://www.w3.org/1999/xlink" x="0px" y="0px"
	 width="640px" height="440px" viewBox="0 0 640 440" enable-background="new 0 0 640 440" xml:space="preserve">
<path fill="#335E83" d="M132.805,79c-1.602,0-3.092,0.467-4.355,1.262c-1.181-3.075-4.154-5.262-7.645-5.262
	c-1.419,0-2.754,0.362-3.918,0.997C115.022,73.571,112.1,72,108.805,72c-5.065,0-9.256,3.699-10.049,8.54
	C95.421,81.579,93,84.689,93,88.366c0,4.526,3.669,8.195,8.195,8.195c0.597,0,1.178-0.067,1.738-0.189
	c1.194,3.05,4.155,5.213,7.627,5.213c2.854,0,5.365-1.461,6.833-3.675c1.568,1.244,3.547,1.992,5.704,1.992
	c3.44,0,6.434-1.893,8.011-4.69c0.548,0.115,1.114,0.178,1.696,0.178c4.526,0,8.195-3.669,8.195-8.195
	C141,82.669,137.331,79,132.805,79z M132.805,93.39c-0.425,0-0.857-0.045-1.285-0.135l-1.435-0.302l-0.719,1.277
	c-1.277,2.265-3.679,3.672-6.269,3.672c-1.633,0-3.175-0.539-4.461-1.559l-1.707-1.354l-1.203,1.815
	c-1.154,1.741-3.085,2.78-5.166,2.78c-2.564,0-4.828-1.547-5.765-3.942l-0.621-1.587l-1.665,0.361
	c-0.439,0.095-0.881,0.144-1.314,0.144c-3.416,0-6.195-2.779-6.195-6.195c0-2.728,1.749-5.105,4.351-5.916l1.18-0.368l0.199-1.219
	c0.651-3.977,4.047-6.863,8.075-6.863c2.558,0,4.926,1.172,6.496,3.215l1.042,1.357l1.502-0.82c0.902-0.492,1.926-0.752,2.96-0.752
	c2.542,0,4.864,1.599,5.778,3.979l0.873,2.272l2.06-1.297c0.992-0.624,2.129-0.954,3.29-0.954c3.416,0,6.195,2.779,6.195,6.195
	S136.221,93.39,132.805,93.39z"/>
<path fill="#335E83" d="M222,80.111c0-3.582-2.905-6.488-6.488-6.488c-1.268,0-2.447,0.37-3.447,0.999
	c-0.936-2.434-3.289-4.165-6.053-4.165c-1.124,0-2.18,0.286-3.102,0.789c-1.476-1.921-3.79-3.164-6.398-3.164
	c-3.348,0-6.206,2.045-7.426,4.951c-4.737,0.332-8.575,3.898-9.33,8.507c-3.334,1.038-5.756,4.149-5.756,7.825
	c0,4.526,3.67,8.195,8.195,8.195c0.598,0,1.178-0.066,1.738-0.188c1.193,3.05,4.154,5.214,7.627,5.214
	c2.855,0,5.365-1.462,6.833-3.676c1.568,1.244,3.548,1.992,5.704,1.992c3.439,0,6.434-1.893,8.011-4.69
	c0.548,0.115,1.114,0.179,1.696,0.179c4.525,0,8.195-3.67,8.195-8.195c0-1.587-0.459-3.064-1.24-4.319
	C221.526,82.812,222,81.523,222,80.111z M213.805,94.391c-0.424,0-0.856-0.046-1.285-0.136l-1.434-0.302l-0.72,1.277
	c-1.277,2.265-3.679,3.672-6.269,3.672c-1.633,0-3.175-0.539-4.461-1.559l-1.707-1.354l-1.204,1.815
	c-1.154,1.741-3.085,2.781-5.166,2.781c-2.564,0-4.827-1.547-5.765-3.943l-0.621-1.588l-1.667,0.363
	c-0.435,0.095-0.876,0.143-1.312,0.143c-3.416,0-6.195-2.779-6.195-6.195c0-2.728,1.749-5.105,4.351-5.916l1.179-0.367l0.2-1.219
	c0.651-3.977,4.047-6.863,8.075-6.863c2.559,0,4.926,1.172,6.496,3.215l1.042,1.357l1.502-0.82c0.914-0.5,1.91-0.752,2.959-0.752
	c2.542,0,4.863,1.599,5.777,3.979l0.873,2.271l2.06-1.295c0.993-0.625,2.131-0.955,3.291-0.955c3.416,0,6.195,2.779,6.195,6.195
	S217.221,94.391,213.805,94.391z"/>
<g>
	<path fill="#335E83" stroke="#1D1D1B" stroke-width="2" stroke-miterlimit="10" d="M438.006,277.098"/>
</g>
<g>
	<polygon fill="#335E83" points="423.997,266.165 422,266.104 422.011,265.938 424.008,266 	"/>
</g>
<path fill="#335E83" d="M375.068,262.874c-1.553,0-2.993,0.459-4.215,1.239c-0.43-1.131-1.103-2.141-1.953-2.961
	c0.625-0.555,1.357-0.989,2.17-1.273c1.64-0.572,3.402-0.477,4.968,0.278c0.741,0.356,1.642,0.047,2.002-0.701
	c0.358-0.746,0.046-1.644-0.701-2.002c-2.284-1.103-4.864-1.245-7.259-0.407c-1.465,0.514-2.75,1.357-3.781,2.458
	c-0.664-0.261-1.367-0.43-2.104-0.5c3.293-3.972,8.984-5.369,13.836-3.032c0.74,0.356,1.642,0.047,2.002-0.701
	c0.359-0.746,0.046-1.643-0.701-2.002c-7.075-3.406-15.57-0.522-19.154,6.412c-0.174,0.079-0.352,0.152-0.518,0.244
	c-0.305-0.402-0.648-0.771-1.01-1.121c4.117-7.797,13.717-11.027,21.728-7.172c0.747,0.358,1.644,0.047,2.002-0.701
	c0.359-0.746,0.046-1.643-0.7-2.002c-9.341-4.498-20.496-0.834-25.469,8.114c-1.316-0.666-2.8-1.044-4.372-1.044
	c-4.901,0-8.961,3.632-9.729,8.389c-3.227,1.019-5.569,4.073-5.569,7.682c0,4.445,3.551,8.049,7.933,8.049
	c0.577,0,1.14-0.064,1.684-0.186c1.152,2.993,4.021,5.119,7.383,5.119c2.764,0,5.193-1.437,6.613-3.609
	c1.518,1.222,3.434,1.957,5.521,1.957c3.33,0,6.228-1.857,7.755-4.606c0.53,0.113,1.077,0.176,1.644,0.176
	c4.38,0,7.931-3.603,7.931-8.048C383,266.479,379.449,262.874,375.068,262.874z M367.779,260.271
	c-0.105-0.07-0.217-0.133-0.326-0.198C367.562,260.137,367.674,260.201,367.779,260.271z M368.881,261.136
	c-0.229-0.218-0.477-0.415-0.729-0.604C368.406,260.719,368.65,260.917,368.881,261.136z M375.068,276.969
	c-0.408,0-0.811-0.043-1.227-0.132l-1.445-0.31l-0.72,1.293c-1.227,2.207-3.526,3.578-6.006,3.578c-1.562,0-3.036-0.522-4.269-1.515
	l-1.721-1.384l-1.207,1.85c-1.105,1.691-2.953,2.702-4.938,2.702c-2.453,0-4.618-1.507-5.517-3.839l-0.619-1.607l-1.683,0.375
	c-0.411,0.092-0.831,0.138-1.249,0.138c-3.271,0-5.932-2.714-5.932-6.048c0-2.668,1.677-4.987,4.173-5.775l1.176-0.371l0.196-1.218
	c0.627-3.886,3.889-6.706,7.754-6.706c2.45,0,4.721,1.143,6.227,3.133l1.047,1.381l1.516-0.836c0.877-0.484,1.828-0.73,2.826-0.73
	c2.468,0,4.639,1.521,5.531,3.877l0.873,2.303l2.073-1.327c0.947-0.604,2.032-0.925,3.14-0.925c3.271,0,5.931,2.713,5.931,6.047
	C381,274.256,378.34,276.969,375.068,276.969z"/>
<g>
	<path fill="#335E83" d="M279,72c0.552,0,1-0.448,1-1v-7c0-0.552-0.448-1-1-1s-1,0.448-1,1v7C278,71.552,278.448,72,279,72z"/>
	<path fill="#335E83" d="M270.633,73.51c0.276,0.478,0.889,0.642,1.367,0.366s0.642-0.888,0.365-1.366l-3.5-6.062
		c-0.275-0.478-0.888-0.642-1.365-0.366c-0.479,0.276-0.643,0.888-0.367,1.366L270.633,73.51z"/>
	<path fill="#335E83" d="M266.508,77.635l-6.062-3.5c-0.478-0.276-1.09-0.112-1.365,0.366c-0.276,0.479-0.112,1.09,0.364,1.367
		l6.062,3.5c0.479,0.276,1.091,0.111,1.367-0.367C267.15,78.522,266.987,77.91,266.508,77.635z"/>
	<path fill="#335E83" d="M264.999,85.999c-0.001-0.551-0.448-0.999-1.001-0.999h-6.999c-0.552,0-1,0.447-1,0.999
		c0,0.553,0.448,1.001,0.999,1.001h7C264.551,87,264.999,86.551,264.999,85.999z"/>
	<path fill="#335E83" d="M265.508,92.636l-6.061,3.499c-0.479,0.275-0.643,0.888-0.367,1.365c0.276,0.479,0.889,0.643,1.366,0.368
		l6.062-3.5c0.479-0.277,0.643-0.889,0.367-1.367C266.598,92.524,265.986,92.359,265.508,92.636z"/>
	<path fill="#335E83" d="M272,98.125c-0.479-0.274-1.091-0.112-1.367,0.368l-3.499,6.061c-0.276,0.478-0.112,1.09,0.365,1.366
		c0.479,0.276,1.091,0.112,1.366-0.365l3.5-6.062C272.641,99.014,272.477,98.402,272,98.125z"/>
	<path fill="#335E83" d="M279,100.001c-0.553,0.002-1,0.449-1,1.002v6.998c0,0.552,0.448,1,1,1s1-0.448,1-0.999v-7
		C279.999,100.45,279.551,100.002,279,100.001z"/>
	<path fill="#335E83" d="M287.367,98.493c-0.277-0.479-0.89-0.643-1.367-0.368c-0.478,0.278-0.642,0.888-0.365,1.368l3.499,6.06
		c0.276,0.479,0.889,0.643,1.366,0.367c0.479-0.276,0.643-0.888,0.367-1.365L287.367,98.493z"/>
	<path fill="#335E83" d="M298.555,96.136l-6.062-3.5c-0.479-0.275-1.092-0.111-1.368,0.365c-0.274,0.479-0.111,1.09,0.368,1.367
		l6.06,3.499c0.479,0.276,1.092,0.112,1.367-0.366S299.031,96.411,298.555,96.136z"/>
	<path fill="#335E83" d="M301.002,85h-7c-0.553,0-1.001,0.449-1.002,1c0.002,0.553,0.448,1,1.002,1h6.997
		c0.554,0,1.002-0.448,1.001-1C302.001,85.448,301.553,85,301.002,85z"/>
	<path fill="#335E83" d="M292.492,79.366l6.06-3.499c0.479-0.277,0.644-0.889,0.366-1.367c-0.274-0.479-0.887-0.643-1.364-0.367
		l-6.062,3.5c-0.479,0.278-0.643,0.89-0.367,1.368C291.402,79.479,292.013,79.643,292.492,79.366z"/>
	<path fill="#335E83" d="M286,73.876c0.479,0.275,1.09,0.112,1.367-0.368l3.498-6.06c0.277-0.479,0.113-1.092-0.366-1.367
		c-0.477-0.277-1.089-0.113-1.365,0.364l-3.499,6.062C285.359,72.988,285.523,73.601,286,73.876z"/>
	<path fill="#335E83" d="M279,76c-5.523,0-10,4.477-10,10s4.477,10,10,10s10-4.477,10-10S284.523,76,279,76z M279,94
		c-4.411,0-8-3.589-8-8s3.589-8,8-8s8,3.589,8,8S283.411,94,279,94z"/>
</g>
<g>
	<path fill="#335E83" d="M424.344,95.234c-1.793,1.793-1.791,4.697,0,6.49c1.791,1.791,4.697,1.789,6.487,0
		c1.791-1.793,17.153-23.21,18.233-24.725C447.553,78.082,426.135,93.445,424.344,95.234z"/>
	<path fill="#335E83" d="M441.406,78.914c1.008-1.009,9.652-13.062,10.261-13.914c-0.851,0.609-12.903,9.254-13.911,10.262
		c-1.009,1.009-1.008,2.643,0,3.652C438.764,79.922,440.399,79.921,441.406,78.914z"/>
	<path fill="#335E83" d="M426.14,84.461c0.719-0.719,6.878-9.306,7.312-9.914c-0.605,0.434-9.193,6.593-9.911,7.312
		c-0.719,0.719-0.718,1.883,0,2.602C424.257,85.179,425.423,85.179,426.14,84.461z"/>
	<path fill="#335E83" d="M448.089,94.592c-1.009,1.009-1.008,2.643,0,3.652c1.008,1.008,2.645,1.007,3.65,0
		c1.008-1.01,9.652-13.062,10.261-13.914C461.149,84.939,449.097,93.584,448.089,94.592z"/>
	<path fill="#335E83" d="M451.708,82.292c0.456,0.456,1.195,0.456,1.651,0S457.725,76.385,458,76
		c-0.385,0.275-5.836,4.185-6.292,4.641S451.252,81.836,451.708,82.292z"/>
	<path fill="#335E83" d="M436,102.652c0.456,0.455,1.195,0.455,1.651,0c0.456-0.457,4.365-5.908,4.641-6.293
		c-0.385,0.275-5.836,4.186-6.292,4.641C435.544,101.457,435.544,102.195,436,102.652z"/>
</g>
<g>
	<path fill="#335E83" d="M213.287,161.588c-1.508,0-2.911,0.439-4.099,1.188c-1.111-2.894-3.91-4.952-7.195-4.952
		c-1.336,0-2.593,0.34-3.688,0.938c-1.754-2.284-4.505-3.762-7.606-3.762c-4.767,0-8.711,3.481-9.457,8.038
		c-3.139,0.978-5.418,3.906-5.418,7.366c0,4.26,3.454,7.713,7.714,7.713c0.562,0,1.108-0.062,1.636-0.178
		c1.123,2.87,3.91,4.907,7.179,4.907c2.687,0,5.05-1.376,6.431-3.46c1.477,1.171,3.339,1.875,5.369,1.875
		c3.237,0,6.055-1.781,7.539-4.414c0.516,0.108,1.049,0.168,1.597,0.168c4.259,0,7.713-3.454,7.713-7.713
		C221,165.042,217.546,161.588,213.287,161.588z M213.287,175.015c-0.391,0-0.79-0.042-1.185-0.125l-1.434-0.302l-0.72,1.276
		c-1.181,2.095-3.402,3.396-5.797,3.396c-1.51,0-2.937-0.499-4.126-1.442l-1.707-1.354l-1.203,1.816
		c-1.064,1.605-2.845,2.564-4.764,2.564c-2.365,0-4.452-1.427-5.316-3.636l-0.622-1.589l-1.667,0.364
		c-0.4,0.087-0.807,0.132-1.209,0.132c-3.15,0-5.714-2.563-5.714-5.713c0-2.516,1.613-4.708,4.013-5.456l1.179-0.368l0.2-1.219
		c0.604-3.686,3.751-6.361,7.483-6.361c2.371,0,4.565,1.086,6.021,2.98l1.042,1.357l1.502-0.82c0.832-0.454,1.775-0.694,2.73-0.694
		c2.344,0,4.485,1.475,5.328,3.669l0.873,2.273l2.06-1.298c0.914-0.576,1.962-0.88,3.033-0.88c3.15,0,5.713,2.563,5.713,5.713
		C219,172.452,216.437,175.015,213.287,175.015z"/>
	<path fill="#335E83" d="M181.372,192.202c-0.732,0.732-0.731,1.919,0,2.652c0.731,0.731,1.919,0.73,2.65,0
		c0.731-0.733,7.009-9.485,7.45-10.104C190.855,185.193,182.104,191.471,181.372,192.202z"/>
	<path fill="#335E83" d="M189.471,192.071c-0.864,0.863-0.862,2.263,0,3.126c0.862,0.864,2.264,0.864,3.125,0
		c0.863-0.863,8.266-11.184,8.786-11.913C200.654,183.807,190.333,191.207,189.471,192.071z"/>
	<path fill="#335E83" d="M199.308,190.42c-0.646,0.646-0.646,1.692,0,2.34c0.646,0.646,1.693,0.645,2.338,0
		c0.646-0.647,6.185-8.368,6.573-8.914C207.674,184.236,199.953,189.774,199.308,190.42z"/>
	<path fill="#335E83" d="M178.531,186.486c-0.456,0.457-0.456,1.196,0,1.652c0.456,0.456,1.195,0.455,1.651,0
		c0.456-0.456,4.366-5.907,4.641-6.293C184.438,182.121,178.987,186.031,178.531,186.486z"/>
	<path fill="#335E83" d="M207.531,192.504c0.456,0.456,1.195,0.455,1.651,0c0.456-0.456,4.366-5.907,4.641-6.293
		c-0.385,0.275-5.836,4.186-6.292,4.641C207.075,191.309,207.075,192.048,207.531,192.504z"/>
</g>
<g>
	<path fill="#335E83" d="M342.279,104.478c1.904,1.903,4.397,2.854,6.893,2.854s4.988-0.951,6.891-2.854
		c3.809-3.807,5.056-17.918,7.354-21.134c-3.218,2.297-17.329,3.545-21.135,7.351C338.475,94.501,338.475,100.671,342.279,104.478z
		 M355.605,87.902c1.662-0.395,3.099-0.742,4.33-1.079c-0.338,1.231-0.685,2.667-1.078,4.329
		c-1.071,4.503-2.404,10.108-4.209,11.912c-1.463,1.463-3.408,2.269-5.478,2.269s-4.015-0.806-5.478-2.268
		c-3.021-3.021-3.021-7.935,0-10.955C345.498,90.306,351.104,88.973,355.605,87.902z"/>
	<path fill="#335E83" d="M358.479,69.261c-2.457,2.457-2.457,6.438,0,8.894c1.228,1.228,2.836,1.842,4.445,1.842
		s3.221-0.614,4.447-1.842c2.456-2.457,3.262-11.562,4.743-13.638C370.04,66,360.934,66.805,358.479,69.261z M365.957,76.741
		c-0.811,0.81-1.887,1.256-3.033,1.256s-2.222-0.446-3.031-1.256c-1.672-1.672-1.672-4.394,0-6.065
		c1.021-1.022,4.828-1.927,7.349-2.526c0.588-0.14,1.134-0.271,1.641-0.397c-0.126,0.505-0.257,1.051-0.396,1.638
		C367.885,71.91,366.979,75.718,365.957,76.741z"/>
	<path fill="#335E83" d="M368.958,87.578c-1.504,1.505-1.504,3.944,0,5.448c0.753,0.752,1.739,1.128,2.726,1.128
		c0.985,0,1.971-0.376,2.725-1.128c1.503-1.504,1.997-7.082,2.902-8.353C376.041,85.582,370.464,86.075,368.958,87.578z
		 M372.993,91.612c-0.351,0.35-0.815,0.542-1.312,0.542s-0.961-0.193-1.311-0.542c-0.723-0.722-0.723-1.897-0.002-2.618
		c0.474-0.452,2.604-0.978,3.91-1.289C373.969,89.011,373.443,91.14,372.993,91.612z"/>
</g>
<g>
	<path fill="#335E83" d="M457.287,160.743c-1.508,0-2.911,0.439-4.1,1.188c-1.11-2.894-3.909-4.952-7.194-4.952
		c-1.336,0-2.593,0.34-3.688,0.938c-1.754-2.284-4.505-3.762-7.605-3.762c-4.768,0-8.711,3.481-9.457,8.038
		c-3.14,0.978-5.418,3.906-5.418,7.366c0,4.26,3.454,7.713,7.714,7.713c0.562,0,1.108-0.062,1.636-0.178
		c1.123,2.87,3.91,4.907,7.179,4.907c2.688,0,5.051-1.376,6.432-3.46c1.477,1.171,3.339,1.875,5.369,1.875
		c3.236,0,6.055-1.781,7.539-4.414c0.516,0.108,1.049,0.168,1.597,0.168c4.259,0,7.713-3.454,7.713-7.713
		C465,164.196,461.546,160.743,457.287,160.743z M457.287,174.169c-0.393,0-0.79-0.042-1.187-0.125l-1.434-0.302l-0.72,1.276
		c-1.182,2.095-3.402,3.396-5.797,3.396c-1.511,0-2.938-0.499-4.126-1.442l-1.707-1.354l-1.203,1.816
		c-1.064,1.605-2.846,2.564-4.765,2.564c-2.364,0-4.451-1.427-5.315-3.636l-0.622-1.589l-1.667,0.364
		c-0.4,0.087-0.808,0.132-1.209,0.132c-3.15,0-5.714-2.563-5.714-5.713c0-2.516,1.611-4.708,4.013-5.456l1.18-0.368l0.199-1.219
		c0.604-3.686,3.751-6.361,7.483-6.361c2.371,0,4.564,1.086,6.021,2.98l1.042,1.357l1.502-0.82c0.832-0.454,1.776-0.694,2.73-0.694
		c2.345,0,4.484,1.475,5.328,3.669l0.873,2.273l2.061-1.298c0.913-0.576,1.962-0.88,3.032-0.88c3.149,0,5.713,2.563,5.713,5.713
		C463,171.606,460.438,174.169,457.287,174.169z"/>
	<path fill="#335E83" d="M435.621,185.609c-0.089-0.143-0.289-0.191-0.445-0.109l-0.856,0.451l0.118-0.4
		c0.046-0.158-0.058-0.322-0.23-0.364c-0.175-0.043-0.354,0.052-0.4,0.211l-0.285,0.975l-0.559,0.294l0.416-1.417
		c0.047-0.159-0.057-0.322-0.23-0.364c-0.174-0.043-0.354,0.052-0.399,0.21l-0.581,1.992L431,187.702v-1.231l1.596-1.458
		c0.127-0.116,0.125-0.305-0.003-0.421c-0.127-0.116-0.331-0.116-0.459,0L431,185.629v-0.587l0.777-0.714
		c0.129-0.116,0.126-0.305-0.002-0.421c-0.127-0.116-0.329-0.116-0.457,0L431,184.2v-0.902c0-0.164-0.32-0.298-0.5-0.298
		s-0.5,0.134-0.5,0.298v0.902l-0.151-0.293c-0.128-0.116-0.25-0.116-0.378,0c-0.127,0.116-0.254,0.305-0.127,0.421l0.656,0.714
		v0.587l-0.968-1.037c-0.128-0.116-0.25-0.116-0.378,0c-0.127,0.116-0.254,0.305-0.127,0.421l1.473,1.458v1.231l-1-0.615
		l-0.501-1.992c-0.047-0.158-0.183-0.253-0.356-0.21c-0.176,0.042-0.258,0.205-0.211,0.364l0.429,1.417l-0.555-0.294l-0.282-0.975
		c-0.047-0.159-0.226-0.254-0.398-0.211c-0.174,0.042-0.276,0.206-0.229,0.364l0.116,0.4l-0.855-0.451
		c-0.156-0.082-0.355-0.033-0.446,0.109c-0.09,0.142-0.036,0.324,0.12,0.406l0.857,0.451l-0.439,0.107
		c-0.174,0.043-0.277,0.206-0.231,0.364c0.039,0.133,0.172,0.221,0.315,0.221c0.028,0,0.057-0.003,0.084-0.01l1.07-0.262
		l0.558,0.294l-1.555,0.379c-0.174,0.043-0.277,0.206-0.229,0.364c0.039,0.134,0.171,0.222,0.314,0.222
		c0.027,0,0.057-0.004,0.085-0.011l2.185-0.533l1.17,0.615l-1.17,0.616l-2.185-0.534c-0.175-0.043-0.354,0.052-0.399,0.211
		c-0.048,0.158,0.057,0.321,0.229,0.364l1.555,0.38l-0.558,0.293l-1.07-0.261c-0.173-0.043-0.353,0.051-0.399,0.21
		c-0.046,0.158,0.059,0.322,0.231,0.364l0.439,0.107l-0.857,0.451c-0.156,0.082-0.21,0.265-0.12,0.406
		c0.062,0.096,0.17,0.149,0.283,0.149c0.056,0,0.111-0.013,0.163-0.04l0.855-0.451l-0.116,0.4c-0.047,0.158,0.058,0.322,0.23,0.364
		c0.027,0.007,0.056,0.011,0.085,0.011c0.145,0,0.275-0.088,0.314-0.222l0.286-0.975l0.558-0.293l-0.416,1.416
		c-0.047,0.159,0.057,0.322,0.229,0.365c0.028,0.007,0.059,0.01,0.086,0.01c0.144,0,0.275-0.088,0.314-0.221L429,189.35l1-0.616
		v1.231l-1.43,1.458c-0.127,0.116-0.043,0.305,0.084,0.421c0.063,0.058,0.188,0.087,0.272,0.087s0.021-0.029,0.083-0.087
		l0.989-1.037v0.586l-0.614,0.715c-0.127,0.116-0.042,0.305,0.085,0.421c0.063,0.059,0.189,0.087,0.273,0.087
		s0.019-0.028,0.083-0.087l0.173-0.293v0.902c0,0.164,0.32,0.298,0.5,0.298s0.5-0.134,0.5-0.298v-0.902l0.316,0.293
		c0.063,0.059,0.146,0.087,0.229,0.087s0.166-0.028,0.229-0.087c0.128-0.116,0.131-0.305,0.003-0.421L431,191.394v-0.587
		l1.133,1.037c0.064,0.058,0.146,0.087,0.229,0.087c0.084,0,0.166-0.029,0.23-0.087c0.127-0.116,0.13-0.305,0.003-0.421L431,189.965
		v-1.231l1.166,0.616l0.582,1.991c0.04,0.133,0.17,0.221,0.314,0.221c0.027,0,0.058-0.003,0.084-0.01
		c0.176-0.043,0.277-0.206,0.23-0.365l-0.417-1.417l0.558,0.294l0.287,0.976c0.039,0.133,0.171,0.221,0.314,0.221
		c0.028,0,0.057-0.004,0.086-0.011c0.174-0.042,0.276-0.206,0.23-0.364l-0.118-0.4l0.856,0.451c0.052,0.027,0.107,0.04,0.163,0.04
		c0.113,0,0.223-0.054,0.282-0.149c0.091-0.142,0.038-0.324-0.118-0.406l-0.856-0.451l0.438-0.107
		c0.174-0.042,0.276-0.206,0.229-0.364c-0.047-0.159-0.227-0.253-0.398-0.21l-1.071,0.261l-0.557-0.293l1.554-0.38
		c0.175-0.043,0.277-0.206,0.231-0.364c-0.047-0.159-0.227-0.254-0.399-0.211l-2.186,0.534l-1.17-0.616l1.17-0.615l2.186,0.533
		c0.027,0.007,0.057,0.011,0.084,0.011c0.145,0,0.276-0.088,0.315-0.221c0.046-0.159-0.058-0.322-0.231-0.365l-1.554-0.379
		l0.557-0.294l1.071,0.262c0.027,0.007,0.056,0.01,0.083,0.01c0.146,0,0.277-0.088,0.316-0.221c0.046-0.158-0.058-0.321-0.23-0.364
		l-0.438-0.107l0.856-0.451C435.659,185.934,435.712,185.751,435.621,185.609z"/>
	<path fill="#335E83" d="M460.82,187.339c-0.089-0.143-0.289-0.191-0.445-0.109l-0.857,0.451l0.118-0.4
		c0.046-0.158-0.057-0.322-0.229-0.364c-0.175-0.043-0.354,0.052-0.4,0.211l-0.286,0.975l-0.558,0.294l0.416-1.417
		c0.047-0.159-0.057-0.322-0.23-0.364c-0.174-0.043-0.354,0.052-0.399,0.21l-0.682,1.992L456,189.432V188.2l1.695-1.458
		c0.127-0.116,0.175-0.305,0.047-0.421c-0.127-0.116-0.406-0.116-0.534,0L456,187.358v-0.587l0.877-0.714
		c0.129-0.116,0.176-0.305,0.048-0.421c-0.127-0.116-0.403-0.116-0.532,0L456,185.93v-0.902c0-0.164-0.32-0.298-0.5-0.298
		s-0.5,0.134-0.5,0.298v0.902l-0.052-0.293c-0.128-0.116-0.2-0.116-0.328,0c-0.127,0.116-0.329,0.305-0.201,0.421l0.581,0.714v0.587
		l-0.868-1.037c-0.128-0.116-0.2-0.116-0.328,0c-0.127,0.116-0.328,0.305-0.2,0.421L455,188.2v1.231l-0.9-0.615l-0.45-1.992
		c-0.048-0.158-0.158-0.253-0.332-0.21c-0.176,0.042-0.244,0.205-0.197,0.364l0.433,1.417l-0.55-0.294l-0.281-0.975
		c-0.046-0.159-0.225-0.254-0.397-0.211c-0.174,0.042-0.276,0.206-0.229,0.364l0.118,0.4l-0.855-0.451
		c-0.156-0.082-0.355-0.033-0.446,0.109c-0.09,0.142-0.036,0.324,0.12,0.406l0.856,0.451l-0.438,0.107
		c-0.174,0.043-0.277,0.206-0.231,0.364c0.039,0.133,0.171,0.221,0.315,0.221c0.027,0,0.057-0.003,0.084-0.01l1.07-0.262
		l0.558,0.294l-1.555,0.379c-0.175,0.043-0.277,0.206-0.229,0.364c0.039,0.134,0.171,0.222,0.314,0.222
		c0.026,0,0.057-0.004,0.085-0.011l2.185-0.533l1.17,0.615l-1.17,0.616l-2.185-0.534c-0.175-0.043-0.354,0.052-0.399,0.211
		c-0.048,0.158,0.057,0.321,0.229,0.364l1.555,0.38l-0.558,0.293l-1.07-0.261c-0.173-0.043-0.354,0.051-0.399,0.21
		c-0.046,0.158,0.059,0.322,0.231,0.364l0.438,0.107l-0.856,0.451c-0.156,0.082-0.21,0.265-0.12,0.406
		c0.061,0.096,0.17,0.149,0.283,0.149c0.056,0,0.11-0.013,0.163-0.04l0.855-0.451l-0.117,0.4c-0.046,0.158,0.059,0.322,0.231,0.364
		c0.026,0.007,0.056,0.011,0.085,0.011c0.144,0,0.275-0.088,0.313-0.222l0.286-0.975l0.559-0.293l-0.416,1.416
		c-0.047,0.159,0.057,0.322,0.229,0.365c0.028,0.007,0.059,0.01,0.085,0.01c0.145,0,0.276-0.088,0.315-0.221l0.315-1.991l0.9-0.616
		v1.231l-1.33,1.458c-0.127,0.116,0.007,0.305,0.134,0.421c0.064,0.058,0.216,0.087,0.3,0.087s-0.067-0.029-0.006-0.087L455,192.53
		v0.586l-0.515,0.715c-0.127,0.116,0.008,0.305,0.135,0.421c0.063,0.059,0.215,0.087,0.299,0.087c0.083,0-0.069-0.028-0.005-0.087
		l0.086-0.293v0.902c0,0.164,0.32,0.298,0.5,0.298s0.5-0.134,0.5-0.298v-0.902l0.416,0.293c0.064,0.059,0.196,0.087,0.279,0.087
		s0.19-0.028,0.255-0.087c0.128-0.116,0.043-0.305-0.085-0.421L456,193.123v-0.587l1.232,1.037c0.063,0.058,0.194,0.087,0.277,0.087
		c0.084,0,0.191-0.029,0.257-0.087c0.128-0.116,0.042-0.305-0.085-0.421L456,191.694v-1.231l1.266,0.616l0.633,1.991
		c0.039,0.133,0.194,0.221,0.341,0.221c0.026,0,0.067-0.003,0.096-0.01c0.175-0.043,0.283-0.206,0.236-0.365l-0.413-1.417
		l0.56,0.294l0.287,0.976c0.039,0.133,0.171,0.221,0.314,0.221c0.027,0,0.058-0.004,0.087-0.011
		c0.174-0.042,0.275-0.206,0.229-0.364l-0.118-0.4l0.857,0.451c0.052,0.027,0.107,0.04,0.163,0.04c0.113,0,0.223-0.054,0.282-0.149
		c0.091-0.142,0.038-0.324-0.118-0.406l-0.857-0.451l0.439-0.107c0.174-0.042,0.275-0.206,0.229-0.364
		c-0.047-0.159-0.227-0.253-0.398-0.21l-1.071,0.261l-0.557-0.293l1.554-0.38c0.175-0.043,0.277-0.206,0.23-0.364
		c-0.047-0.159-0.226-0.254-0.398-0.211l-2.187,0.534l-1.17-0.616l1.17-0.615l2.187,0.533c0.027,0.007,0.057,0.011,0.084,0.011
		c0.144,0,0.276-0.088,0.314-0.221c0.047-0.159-0.057-0.322-0.23-0.365l-1.554-0.379l0.557-0.294l1.071,0.262
		c0.026,0.007,0.056,0.01,0.083,0.01c0.145,0,0.276-0.088,0.315-0.221c0.047-0.158-0.057-0.321-0.229-0.364l-0.439-0.107
		l0.857-0.451C460.858,187.663,460.911,187.48,460.82,187.339z"/>
	<path fill="#335E83" d="M447.167,183.619c-0.057-0.091-0.185-0.121-0.284-0.069l-0.545,0.287l0.075-0.255
		c0.029-0.101-0.036-0.205-0.146-0.231c-0.11-0.027-0.226,0.032-0.255,0.134l-0.183,0.62l-0.354,0.188l0.266-0.901
		c0.028-0.102-0.036-0.205-0.146-0.232c-0.11-0.027-0.226,0.033-0.255,0.134l-0.481,1.268L444,184.951v-0.783l1.129-0.928
		c0.08-0.074,0.136-0.194,0.055-0.269c-0.08-0.073-0.297-0.073-0.378,0l-0.806,0.66v-0.373l0.607-0.455
		c0.082-0.073,0.138-0.193,0.056-0.268c-0.08-0.074-0.295-0.074-0.376,0L444,182.723v-0.574c0-0.104,0.115-0.189,0-0.189
		s0,0.085,0,0.189v0.574l-0.302-0.187c-0.081-0.074-0.261-0.074-0.343,0c-0.08,0.074-0.009,0.194,0.072,0.268l0.571,0.455v0.373
		l-0.821-0.66c-0.081-0.073-0.261-0.073-0.343,0c-0.08,0.074-0.007,0.194,0.073,0.269l1.091,0.928v0.783l-0.842-0.392l-0.422-1.268
		c-0.029-0.101-0.167-0.161-0.277-0.134c-0.111,0.027-0.188,0.131-0.159,0.232l0.258,0.901l-0.357-0.188l-0.184-0.62
		c-0.028-0.102-0.145-0.161-0.256-0.134c-0.109,0.026-0.176,0.131-0.146,0.231l0.073,0.255l-0.545-0.287
		c-0.1-0.052-0.227-0.021-0.283,0.069c-0.058,0.09-0.023,0.207,0.075,0.259l0.546,0.287l-0.279,0.068
		c-0.11,0.027-0.176,0.131-0.147,0.231c0.025,0.085,0.109,0.141,0.201,0.141c0.019,0,0.036-0.002,0.054-0.006l0.682-0.167
		l0.354,0.188l-0.989,0.241c-0.11,0.027-0.177,0.131-0.146,0.231c0.023,0.085,0.108,0.142,0.2,0.142
		c0.018,0,0.036-0.003,0.054-0.007l1.391-0.34l0.744,0.392l-0.744,0.393l-1.391-0.341c-0.111-0.027-0.225,0.033-0.254,0.135
		c-0.03,0.101,0.035,0.204,0.146,0.231l0.989,0.242l-0.354,0.187l-0.682-0.166c-0.109-0.027-0.225,0.032-0.255,0.134
		c-0.028,0.101,0.037,0.205,0.147,0.231l0.279,0.068l-0.546,0.287c-0.1,0.052-0.134,0.168-0.075,0.259
		c0.037,0.061,0.106,0.095,0.18,0.095c0.036,0,0.071-0.008,0.104-0.025l0.545-0.287l-0.074,0.255
		c-0.029,0.101,0.037,0.205,0.146,0.231c0.019,0.005,0.035,0.007,0.055,0.007c0.092,0,0.176-0.056,0.199-0.141l0.184-0.62
		l0.354-0.187l-0.265,0.9c-0.03,0.102,0.036,0.205,0.146,0.232c0.02,0.005,0.037,0.007,0.056,0.007c0.091,0,0.176-0.056,0.199-0.141
		l0.471-1.267l0.842-0.393v0.783l-1.115,0.928c-0.08,0.074-0.129,0.194-0.049,0.269c0.041,0.036,0.069,0.055,0.123,0.055
		s0.19-0.019,0.231-0.055l0.81-0.66v0.373l-0.596,0.455c-0.081,0.073-0.13,0.193-0.05,0.268c0.041,0.037,0.069,0.055,0.123,0.055
		s0.191-0.018,0.232-0.055l0.289-0.187v0.574c0,0.104-0.115,0.189,0,0.189s0-0.085,0-0.189v-0.574l0.313,0.187
		c0.041,0.037,0.15,0.055,0.203,0.055c0.054,0,0.134-0.018,0.174-0.055c0.081-0.074-0.016-0.194-0.098-0.268L444,187.3v-0.373
		l0.834,0.66c0.041,0.036,0.149,0.055,0.202,0.055c0.054,0,0.134-0.019,0.176-0.055c0.08-0.074-0.017-0.194-0.098-0.269L444,186.391
		v-0.783l0.855,0.393l0.427,1.267c0.024,0.085,0.136,0.141,0.229,0.141c0.019,0,0.05-0.002,0.067-0.007
		c0.109-0.027,0.184-0.131,0.154-0.232l-0.264-0.901l0.357,0.188l0.184,0.62c0.024,0.085,0.108,0.141,0.2,0.141
		c0.019,0,0.036-0.002,0.056-0.007c0.11-0.026,0.177-0.131,0.146-0.231l-0.075-0.255l0.545,0.287
		c0.033,0.018,0.068,0.025,0.104,0.025c0.071,0,0.142-0.034,0.18-0.095c0.058-0.091,0.023-0.207-0.075-0.259l-0.546-0.287
		l0.279-0.068c0.11-0.026,0.176-0.131,0.146-0.231c-0.028-0.102-0.144-0.161-0.254-0.134l-0.682,0.166l-0.354-0.187l0.989-0.242
		c0.111-0.027,0.177-0.131,0.147-0.231c-0.03-0.102-0.145-0.162-0.256-0.135l-1.391,0.341l-0.744-0.393l0.744-0.392l1.391,0.34
		c0.019,0.004,0.036,0.007,0.055,0.007c0.092,0,0.176-0.057,0.201-0.141c0.028-0.102-0.036-0.205-0.147-0.232l-0.989-0.241
		l0.354-0.188l0.682,0.167c0.019,0.004,0.035,0.006,0.053,0.006c0.093,0,0.178-0.056,0.201-0.141
		c0.029-0.101-0.035-0.204-0.146-0.231l-0.279-0.068l0.546-0.287C447.19,183.826,447.225,183.71,447.167,183.619z"/>
</g>
<path fill="#335E83" d="M541,255.455c0-4.741-8.444-8.455-19.224-8.455c-10.778,0-19.222,3.714-19.222,8.455
	c0,1.506,0.856,2.906,2.364,4.118c-0.46,0.694-0.708,1.437-0.708,2.215c0,1.655,1.119,3.146,3.041,4.353
	c-0.184,0.444-0.28,0.908-0.28,1.387c0,1.998,1.685,3.732,4.438,4.935c-0.005,0.071-0.021,0.142-0.021,0.213
	c0,1.412,0.928,2.671,2.502,3.636c-0.004,0.063-0.017,0.127-0.017,0.19c0,2.077,2.062,3.795,5.21,4.646
	c0.431,1.422,2.607,2.66,5.229,3.021c-0.027,0.082-0.054,0.164-0.054,0.25c0,0.874,1.484,1.583,3.312,1.583
	c1.831,0,3.312-0.709,3.312-1.583c0-0.348-0.241-0.666-0.639-0.928c1.459-0.608,2.467-1.562,2.467-2.852
	c0-0.543-0.186-1.023-0.501-1.447c0.845-0.777,1.33-1.69,1.33-2.69c0-0.679-0.229-1.313-0.634-1.897
	c0.404-0.599,0.634-1.244,0.634-1.929c0-0.553-0.151-1.08-0.418-1.577c1.315-1.021,2.074-2.234,2.074-3.568
	c0-0.524-0.126-1.029-0.347-1.514c1.799-1.184,2.831-2.63,2.831-4.227c0-0.471-0.103-0.928-0.274-1.368
	C539.669,259.033,541,257.327,541,255.455z M506.212,261.788c0-0.365,0.138-0.737,0.376-1.104c1.336,0.756,2.958,1.403,4.807,1.918
	c-1.229,0.537-2.237,1.182-2.981,1.907C507.006,263.661,506.212,262.707,506.212,261.788z M531.546,276.5
	c0,0.482-0.34,0.982-0.944,1.441c-0.529-0.254-1.135-0.457-1.78-0.609c1.019-0.35,1.896-0.787,2.619-1.29
	C531.504,276.195,531.546,276.35,531.546,276.5z M525.859,279c0.771,0,1.446,0.068,2.037,0.177
	c-1.195,0.335-2.618,0.546-4.187,0.546c-0.515,0-1.013-0.023-1.494-0.065C523.062,279.295,524.31,279,525.859,279z M522.468,276.292
	c-2.332,0-4.396-0.388-5.966-0.966c0.479-0.453,1.213-0.879,2.146-1.225c0.791,0.062,1.602,0.1,2.439,0.1
	c2.156,0,4.163-0.213,5.957-0.588c1.153,0.244,2.138,0.601,2.89,1.017C528.326,275.576,525.646,276.292,522.468,276.292z
	 M523.711,271.277c-2.005,0-3.829,0.291-5.351,0.797c-1.558-0.146-2.971-0.409-4.197-0.758c1.104-0.984,3.326-1.842,6.138-2.144
	c0.217,0.004,0.43,0.015,0.648,0.015c0.921,0,1.812-0.039,2.686-0.097c2.618,0.147,4.815,0.777,6.226,1.584
	c-0.815,0.345-1.763,0.647-2.821,0.892C526.006,271.382,524.892,271.277,523.711,271.277z M522.468,267.057
	c-0.805,0-1.583,0.039-2.331,0.114c-3.97-0.083-7.351-0.755-9.781-1.714c1.106-0.818,2.842-1.543,5.022-2.02
	c1.996,0.302,4.142,0.473,6.398,0.473c1.938,0,3.799-0.124,5.552-0.35c1.869,0.459,3.37,1.104,4.385,1.824
	c-2.052,0.836-4.81,1.469-8.05,1.7C523.271,267.066,522.873,267.057,522.468,267.057z M521.087,260.854
	c-2.092,0-4.044,0.197-5.797,0.551c-2.915-0.469-5.361-1.231-7.178-2.146c2.436-1.602,7.045-2.868,12.837-2.868
	c6.348,0,11.274,1.521,13.477,3.336c-1.864,0.785-4.229,1.424-6.979,1.805C525.553,261.1,523.406,260.854,521.087,260.854z
	 M508.973,267.527c0-0.146,0.025-0.295,0.068-0.442c1.549,0.681,3.419,1.218,5.52,1.579c-1.06,0.537-1.884,1.191-2.43,1.928
	C510.136,269.714,508.973,268.593,508.973,267.527z M513.525,273.217c0.586,0.17,1.195,0.322,1.841,0.45
	c-0.272,0.233-0.519,0.478-0.72,0.735C514.095,274.025,513.711,273.623,513.525,273.217z M516.221,277.369
	c1.282,0.428,2.771,0.717,4.396,0.845c-0.453,0.274-0.827,0.595-1.104,0.96C517.94,278.73,516.768,278.07,516.221,277.369z
	 M530.717,280.639c0,0.49-1.651,1.639-4.856,1.639c-1.268,0-2.337-0.262-3.159-0.579c0.332,0.017,0.669,0.024,1.011,0.024
	c2.707,0,5.086-0.527,6.829-1.402C530.646,280.438,530.717,280.551,530.717,280.639z M531.546,272.674
	c0,0.17-0.049,0.342-0.123,0.514c-0.31-0.205-0.651-0.396-1.019-0.571c0.355-0.146,0.693-0.298,1.017-0.46
	C531.496,272.329,531.546,272.502,531.546,272.674z M533.202,267.527c0,0.69-0.487,1.406-1.374,2.064
	c-0.653-0.523-1.473-0.982-2.43-1.359c1.373-0.342,2.612-0.764,3.69-1.258C533.156,267.16,533.202,267.346,533.202,267.527z
	 M535.688,261.788c0,0.88-0.732,1.793-2.03,2.614c-0.624-0.584-1.421-1.111-2.366-1.572c1.607-0.396,3.066-0.889,4.336-1.465
	C535.662,261.507,535.688,261.648,535.688,261.788z M536.33,258.771c-2.515-2.629-8.298-4.383-15.381-4.383
	c-6.481,0-11.873,1.469-14.67,3.733c-1.105-0.856-1.725-1.776-1.725-2.668c0-3.054,7.072-6.455,17.222-6.455S539,252.4,539,255.454
	C539,256.576,538.039,257.743,536.33,258.771z"/>
<g>
	<path fill="#335E83" d="M132.287,175.743c-0.557,0-1.092,0.078-1.614,0.191c0.093-0.503,0.156-1.017,0.156-1.547
		c0-4.746-3.848-8.593-8.594-8.593c-3.349,0-6.245,1.917-7.663,4.712c-1.429-0.851-3.089-1.352-4.874-1.352
		c-4.767,0-8.712,3.481-9.458,8.038c-3.139,0.978-5.417,3.906-5.417,7.366c0,4.26,3.454,7.713,7.713,7.713
		c0.562,0,1.108-0.062,1.636-0.178c1.124,2.87,3.911,4.907,7.179,4.907c2.687,0,5.05-1.376,6.431-3.46
		c1.476,1.171,3.339,1.875,5.369,1.875c3.238,0,6.056-1.781,7.54-4.414c0.516,0.108,1.049,0.168,1.597,0.168
		c4.259,0,7.713-3.454,7.713-7.713C140,179.196,136.546,175.743,132.287,175.743z M129.211,176.394
		c-0.355,0.156-0.699,0.332-1.023,0.536c-0.032-0.084-0.08-0.16-0.115-0.243C128.441,176.562,128.82,176.462,129.211,176.394z
		 M117.914,172.63c-0.206,0.09-0.413,0.179-0.609,0.286c-0.036-0.046-0.078-0.087-0.114-0.133
		C117.427,172.719,117.669,172.673,117.914,172.63z M132.287,189.169c-0.391,0-0.79-0.042-1.185-0.125l-1.435-0.302l-0.719,1.277
		c-1.181,2.095-3.402,3.396-5.797,3.396c-1.51,0-2.937-0.499-4.125-1.442l-1.707-1.354l-1.203,1.816
		c-1.064,1.605-2.845,2.564-4.764,2.564c-2.365,0-4.452-1.427-5.316-3.636l-0.622-1.589l-1.667,0.364
		c-0.4,0.087-0.807,0.132-1.209,0.132c-3.15,0-5.713-2.563-5.713-5.713c0-2.516,1.612-4.709,4.012-5.456l1.18-0.368l0.199-1.219
		c0.603-3.686,3.75-6.36,7.484-6.36c2.371,0,4.565,1.086,6.02,2.98l1.042,1.357l1.502-0.82c0.832-0.454,1.775-0.694,2.729-0.694
		c2.344,0,4.485,1.475,5.328,3.669l0.873,2.272l2.06-1.296c0.915-0.576,1.964-0.88,3.034-0.88c3.15,0,5.713,2.563,5.713,5.713
		C138,186.606,135.437,189.169,132.287,189.169z"/>
	<path fill="#335E83" d="M124.375,161.872c0.469,0.074,0.909-0.245,0.983-0.714l0.944-5.94c0.074-0.469-0.245-0.909-0.714-0.984
		c-0.469-0.074-0.909,0.245-0.984,0.714l-0.944,5.94C123.587,161.357,123.907,161.797,124.375,161.872z"/>
	<path fill="#335E83" d="M117.07,162.024c0.17,0.443,0.668,0.665,1.111,0.495c0.442-0.17,0.664-0.667,0.495-1.109l-2.153-5.617
		c-0.169-0.443-0.667-0.665-1.11-0.495c-0.443,0.169-0.665,0.667-0.496,1.109L117.07,162.024z"/>
	<path fill="#335E83" d="M111.932,166.304c0.368,0.299,0.91,0.242,1.209-0.127c0.298-0.368,0.242-0.91-0.127-1.208l-4.672-3.789
		c-0.368-0.299-0.91-0.242-1.208,0.126c-0.299,0.369-0.243,0.91,0.125,1.209L111.932,166.304z"/>
	<path fill="#335E83" d="M140.942,166.68c-0.168-0.443-0.666-0.664-1.108-0.495l-5.616,2.153c-0.444,0.171-0.666,0.669-0.497,1.111
		c0.172,0.443,0.667,0.664,1.112,0.494l5.614-2.152C140.891,167.62,141.113,167.123,140.942,166.68z"/>
	<path fill="#335E83" d="M131.273,164.28l3.785-4.671c0.301-0.37,0.243-0.912-0.126-1.209c-0.367-0.299-0.909-0.242-1.208,0.125
		l-3.788,4.673c-0.298,0.371-0.242,0.912,0.126,1.21C130.433,164.706,130.973,164.65,131.273,164.28z"/>
</g>
<g>
	<path fill="#335E83" d="M288.174,171.121c-0.436,0-0.855,0.062-1.265,0.15c0.073-0.394,0.123-0.796,0.123-1.211
		c0-3.718-3.015-6.731-6.733-6.731c-2.623,0-4.89,1.504-6,3.693c-1.12-0.667-2.422-1.061-3.821-1.061
		c-3.735,0-6.825,2.728-7.41,6.297c-2.459,0.767-4.244,3.061-4.244,5.771c0,3.338,2.706,6.043,6.043,6.043
		c0.44,0,0.868-0.049,1.281-0.139c0.88,2.248,3.064,3.844,5.625,3.844c2.105,0,3.956-1.078,5.038-2.71
		c1.157,0.917,2.616,1.469,4.206,1.469c2.537,0,4.745-1.396,5.907-3.458c0.404,0.085,0.822,0.131,1.251,0.131
		c3.337,0,6.042-2.706,6.042-6.042C294.216,173.827,291.511,171.121,288.174,171.121z M285.763,171.632
		c-0.278,0.122-0.546,0.259-0.801,0.419c-0.025-0.066-0.062-0.125-0.09-0.19C285.161,171.764,285.457,171.686,285.763,171.632z
		 M276.914,168.684c-0.162,0.07-0.324,0.14-0.478,0.224c-0.028-0.036-0.061-0.068-0.089-0.104
		C276.532,168.753,276.722,168.717,276.914,168.684z M288.174,181.207c-0.279,0-0.562-0.03-0.84-0.088l-1.434-0.302l-0.72,1.277
		c-0.848,1.505-2.443,2.44-4.164,2.44c-1.084,0-2.109-0.358-2.963-1.036l-1.707-1.353l-1.203,1.815
		c-0.753,1.137-2.013,1.815-3.371,1.815c-1.673,0-3.15-1.01-3.762-2.573l-0.622-1.587l-1.666,0.362
		c-0.283,0.062-0.571,0.093-0.856,0.093c-2.229,0-4.043-1.813-4.043-4.043c0-1.78,1.141-3.332,2.839-3.861l1.179-0.367l0.2-1.219
		c0.438-2.677,2.725-4.62,5.436-4.62c1.722,0,3.315,0.789,4.372,2.166l1.042,1.356l1.501-0.818c0.597-0.326,1.248-0.491,1.933-0.491
		c1.658,0,3.173,1.043,3.77,2.596l0.873,2.271l2.06-1.296c0.648-0.408,1.391-0.624,2.146-0.624c2.229,0,4.042,1.814,4.042,4.044
		S290.403,181.207,288.174,181.207z"/>
	<path fill="#335E83" d="M261.742,195.105c-0.574,0.574-0.573,1.504,0,2.078c0.573,0.573,1.503,0.572,2.076,0
		c0.573-0.574,5.491-7.431,5.837-7.915C269.172,189.615,262.315,194.533,261.742,195.105z"/>
	<path fill="#335E83" d="M268.087,195.003c-0.677,0.677-0.676,1.773,0,2.449c0.676,0.678,1.773,0.678,2.448,0
		c0.676-0.676,6.476-8.762,6.883-9.333C276.849,188.528,268.763,194.326,268.087,195.003z"/>
	<path fill="#335E83" d="M275.793,193.71c-0.506,0.506-0.506,1.325,0,1.833c0.506,0.506,1.327,0.505,1.832,0
		c0.506-0.508,4.845-6.557,5.15-6.983C282.348,188.865,276.299,193.204,275.793,193.71z"/>
	<path fill="#335E83" d="M259.517,190.628c-0.357,0.358-0.357,0.938,0,1.295c0.357,0.356,0.937,0.356,1.293,0
		c0.357-0.357,3.421-4.628,3.636-4.931C264.145,187.208,259.874,190.271,259.517,190.628z"/>
	<path fill="#335E83" d="M282.236,195.342c0.357,0.357,0.937,0.357,1.293,0c0.357-0.356,3.421-4.628,3.636-4.93
		c-0.301,0.216-4.572,3.279-4.929,3.636C281.879,194.406,281.879,194.985,282.236,195.342z"/>
	<path fill="#335E83" d="M281.976,160.254c0.367,0.059,0.712-0.19,0.771-0.558l0.74-4.655c0.058-0.367-0.192-0.711-0.559-0.771
		c-0.367-0.058-0.712,0.192-0.771,0.56l-0.739,4.654C281.358,159.852,281.608,160.196,281.976,160.254z"/>
	<path fill="#335E83" d="M276.252,160.374c0.134,0.348,0.523,0.521,0.871,0.389c0.347-0.134,0.521-0.522,0.388-0.869l-1.687-4.401
		c-0.133-0.347-0.523-0.521-0.87-0.388c-0.347,0.133-0.521,0.522-0.389,0.869L276.252,160.374z"/>
	<path fill="#335E83" d="M272.227,163.728c0.289,0.234,0.713,0.189,0.948-0.1c0.233-0.288,0.189-0.713-0.1-0.946l-3.66-2.968
		c-0.289-0.233-0.713-0.189-0.947,0.099c-0.234,0.289-0.19,0.713,0.098,0.947L272.227,163.728z"/>
	<path fill="#335E83" d="M294.955,164.021c-0.132-0.348-0.521-0.521-0.868-0.388l-4.4,1.687c-0.348,0.135-0.521,0.523-0.389,0.871
		c0.135,0.347,0.522,0.521,0.871,0.387l4.398-1.686C294.915,164.759,295.089,164.369,294.955,164.021z"/>
	<path fill="#335E83" d="M287.38,162.142l2.965-3.659c0.236-0.289,0.19-0.715-0.099-0.947c-0.288-0.234-0.712-0.189-0.946,0.098
		l-2.968,3.66c-0.233,0.291-0.189,0.715,0.099,0.949C286.722,162.476,287.145,162.432,287.38,162.142z"/>
</g>
<path fill="#335E83" d="M300,370.5l-8-5.5v4h-12v-3.004l0.89,0.005c5.603,0,10.795-2.125,10.966-17.357
	c0.226,0.008,0.463,0.085,0.68,0.52c0.347,0.693,0.962,1.106,1.646,1.106c0.813,0,1.555-0.587,1.846-1.459
	c0.17-0.512,0.528-2.135-1.735-3.977c-0.099-0.343-0.177-0.834-0.217-0.834h5.196l-1.708-1.849
	c-0.511-0.512-1.333-1.327-2.155-1.751c0.08-0.16,0.166-0.36,0.237-0.498c0.683-1.321,1.328-2.587,0.772-3.5
	c-0.151-0.248-0.518-0.675-1.275-0.675c-0.455,0-0.86,0.106-1.216,0.278c-0.039-0.226-0.124-0.441-0.276-0.637
	c-0.254-0.326-0.644-0.506-1.003-0.465c-0.048-0.043-0.156-0.22-0.235-0.347c-0.184-0.299-0.436-0.708-0.846-1.116
	c-0.116-0.116-0.468-0.469-0.981-0.469c-0.97,0-1.149,1.002-1.208,1.331c-0.028,0.157-0.086,0.483-0.231,0.559
	c-0.286,0-0.458-0.204-0.801-0.779c-0.278-0.468-0.66-1.109-1.447-1.109c-0.373,0-0.792,0.157-1.102,0.469
	c-0.722,0.721-0.796,1.679-0.796,2.312c0,0.012,0,0.023,0,0.035c-1,0.17-1.181,0.63-1.43,1.231
	c-0.169,0.407-0.141,0.844,0.004,1.263c-0.19,0.005-0.346,0.005-0.444,0.005c-0.841,0-1.069,0.581-1.121,0.76
	c-0.229,0.778,0.403,1.185,0.908,1.509c0.505,0.326,1.316,0.849,1.759,1.501c-0.228,1.333-1.395,6.513-5.812,6.513
	c-2.167,0-4.393-0.874-6.546-1.721c-2.011-0.79-3.911-1.535-5.683-1.535c-1.619,0-2.955,0.645-3.973,1.917
	c-3.622,4.526-3.021,11.088-1.641,12.471l0.98,0.979l0.572-1.143c0.437,2.54,1.899,5.596,3.439,5.596
	c0.973,0,1.338-0.963,1.843-2.296c0.251-0.664,0.92-2.427,1.339-2.564c0.001,0,0.133,0.023,0.394,0.283
	c2.108,2.109,4.278,4.271,7.41,5.09V369h-12.142l-1.714-3H258l2.571,4.5L258,375h5.144l1.714-3H277v5.5c0,0.828,0.671,1.5,1.5,1.5
	s1.5-0.672,1.5-1.5V372h12v4L300,370.5z M269.201,358.275c-1.752,0-2.562,2.139-3.214,3.855c-0.057,0.148-0.12,0.315-0.183,0.479
	c-0.589-0.963-1.36-2.867-1.36-4.472c0-1.702-0.823-1.956-1.313-1.956c-0.202,0-0.569,0-1.092,0.531
	c-0.243-2.01-0.033-5.459,2.186-8.23c0.646-0.809,1.39-1.167,2.412-1.167c1.394,0,3.122,0.679,4.952,1.396
	c2.218,0.871,4.732,1.858,7.277,1.858c5.452,0,7.517-5.626,7.847-8.602l0.033-0.293l-0.132-0.265
	c-0.291-0.583-0.723-1.073-1.172-1.478c0.247-0.145,0.444-0.347,0.562-0.631c0.125-0.3,0.234-0.898-0.415-1.561
	c0.039-0.016,0.084-0.025,0.131-0.025c0.919,0,1.399-0.621,1.427-1.847c0.419,0.507,1.042,0.99,2,0.99
	c0.929,0,1.459-0.439,1.768-0.939c0.218,0.315,0.516,0.65,0.975,0.822c-0.031,0.14-0.067,0.285-0.095,0.396
	c-0.108,0.434-0.221,0.882-0.221,1.29c0,0.164,0.018,0.302,0.058,0.429c0.137,0.446,0.538,0.747,0.995,0.747
	c0.562,0,0.845-0.385,1.119-0.756c0.119-0.16,0.279-0.378,0.466-0.58c-0.121,0.249-0.246,0.491-0.342,0.677
	c-0.598,1.155-0.958,1.995-0.553,2.661c0.057,0.094,0.126,0.39,0.205,0.39h-0.09c-0.432,0-0.823,0.058-1.073,0.404
	c-0.449,0.623-0.407,1.676,0.125,3.27l0.099,0.261l0.168,0.17c1.194,0.896,1.251,1.589,1.251,1.853c0,0.007,0,0.014,0,0.02
	c0-0.861-1.274-1.332-2.258-1.332c-0.734,0-1.193,0.267-1.3,0.319L290,347.239v0.618c0,16.144-5.686,16.144-9.041,16.144
	l-1.203-0.007c-3.871,0-6.243-2.355-8.735-4.849C270.444,358.568,269.82,358.275,269.201,358.275z"/>
<g>
	<path fill="#335E83" stroke="#000000" stroke-width="2" stroke-linecap="round" stroke-miterlimit="10" d="M484.782,211.525"/>
</g>
<g>
	<path fill="#335E83" d="M456.17,257.299c-1.097,0-2.176,0.23-3.173,0.678c-1.37-2.438-3.99-4.011-6.827-4.011
		c-1.03,0-2.051,0.204-2.996,0.597c-1.799-1.979-4.31-3.097-7.004-3.097c-4.468,0-8.265,3.062-9.244,7.365
		c-2.917,1.161-4.868,3.965-4.918,7.153c-0.009,0.553,0.434,1.007,0.984,1.016c0.006,0,0.011,0,0.016,0c0.545,0,0.991-0.438,1-0.984
		c0.039-2.527,1.683-4.729,4.086-5.479l0.59-0.184l0.102-0.61c0.595-3.638,3.701-6.277,7.386-6.277c2.341,0,4.507,1.071,5.942,2.94
		l0.521,0.679l0.751-0.411c0.849-0.463,1.812-0.708,2.785-0.708c2.43,0,4.564,1.47,5.438,3.743l0.437,1.137l1.03-0.648
		c0.933-0.588,2.003-0.897,3.096-0.897c3.215,0,5.83,2.615,5.83,5.829c0,3.611-3.348,6.475-7.038,5.702l-0.717-0.149l-0.359,0.637
		c-1.182,2.099-3.404,3.4-5.804,3.4c-1.513,0-2.941-0.498-4.133-1.443l-0.854-0.676l-0.602,0.906
		c-1.011,1.523-2.709,2.493-4.544,2.594c-0.551,0.029-0.975,0.502-0.943,1.053c0.028,0.533,0.471,0.945,0.997,0.945
		c0.02,0,0.037,0,0.056-0.002c2.117-0.115,4.102-1.094,5.479-2.668c1.364,0.848,2.916,1.291,4.544,1.291
		c2.883,0,5.57-1.445,7.173-3.814c4.673,0.547,8.744-3.154,8.745-7.774C464,260.811,460.487,257.299,456.17,257.299z"/>
	<path fill="#335E83" d="M442,265c0-2.757-2.243-5-5-5s-5,2.243-5,5c0,0.553,0.447,1,1,1s1-0.447,1-1c0-1.654,1.346-3,3-3
		s3,1.346,3,3s-1.346,3-3,3h-20v2h20C439.757,270,442,267.757,442,265z"/>
	<path fill="#335E83" d="M431,271h-14v2h14c1.654,0,3,1.346,3,3s-1.346,3-3,3s-3-1.346-3-3c0-0.553-0.447-1-1-1s-1,0.447-1,1
		c0,2.757,2.243,5,5,5s5-2.243,5-5S433.757,271,431,271z"/>
</g>
<g>
	<path fill="#335E83" d="M294.069,250.348c-1.553,0-2.994,0.459-4.216,1.24c-1.145-3.02-4.021-5.168-7.401-5.168
		c-1.375,0-2.666,0.355-3.793,0.979c-1.804-2.383-4.632-3.926-7.822-3.926c-4.902,0-8.96,3.633-9.729,8.389
		c-3.226,1.019-5.57,4.074-5.57,7.683c0,4.445,3.551,8.048,7.932,8.048c0.578,0,1.14-0.064,1.683-0.186
		c0.745,1.933,2.209,3.492,4.053,4.363l0.463-2.008c-1.178-0.666-2.13-1.726-2.65-3.074l-0.62-1.608l-1.682,0.375
		c-0.41,0.092-0.83,0.138-1.248,0.138c-3.271,0-5.932-2.713-5.932-6.048c0-2.667,1.677-4.987,4.172-5.774l1.176-0.371l0.197-1.217
		c0.627-3.888,3.889-6.707,7.754-6.707c2.45,0,4.72,1.142,6.227,3.133l1.046,1.381l1.516-0.838c0.876-0.483,1.827-0.729,2.826-0.729
		c2.467,0,4.639,1.521,5.531,3.877l0.873,2.304l2.075-1.328c0.946-0.604,2.032-0.924,3.138-0.924c3.27,0,5.931,2.713,5.931,6.047
		s-2.661,6.047-5.931,6.047c-0.404,0-0.816-0.043-1.227-0.131l-1.447-0.31l-0.719,1.294c-1.191,2.145-3.4,3.488-5.798,3.562
		l-0.462,2.004c0.085,0.002,0.169,0.011,0.255,0.011c3.33,0,6.228-1.856,7.754-4.606c0.531,0.113,1.079,0.176,1.644,0.176
		c4.38,0,7.931-3.603,7.931-8.047C302,253.951,298.449,250.348,294.069,250.348z"/>
	<polygon fill="#335E83" points="287,260 275.67,260 271.799,272 274.663,272 270.028,284.684 282.689,270 279.826,270 	"/>
</g>
<g>
	<polygon fill="#335E83" points="202.856,248 190.383,248 186.121,268 189.274,268 182.172,285.889 198.11,264 194.958,264 	"/>
	<polygon fill="#335E83" points="214.261,259 209.763,259 213.416,253 205.544,253 200.765,261 205.264,261 199.641,275.746 	"/>
</g>
<g>
	<path fill="#335E83" d="M529,358.525V340v-0.5v-1.041c0-3.038-2.463-5.5-5.5-5.5s-5.5,2.462-5.5,5.5v1.041v0.5v18.525
		c-3,1.901-5.25,5.446-5.25,9.516c0,6.076,5.049,11,11.125,11s10.812-4.924,10.812-11C534.688,363.973,533,360.428,529,358.525z
		 M523.938,377.041c-4.963,0-8.969-4.037-8.969-9c0-3.193,1.491-6.177,4.269-7.785l0.764-0.577v-1.152V340h7v18.525v1.152
		l1.248,0.577c2.776,1.608,4.627,4.592,4.627,7.785C532.875,373.004,528.9,377.041,523.938,377.041z"/>
	<path fill="#335E83" d="M516,355c0-0.553-0.447-1-1-1h-3c-0.553,0-1,0.447-1,1s0.447,1,1,1h3C515.553,356,516,355.553,516,355z"/>
	<path fill="#335E83" d="M515,350h-2c-0.553,0-1,0.447-1,1s0.447,1,1,1h2c0.553,0,1-0.447,1-1S515.553,350,515,350z"/>
	<path fill="#335E83" d="M515,346h-2c-0.553,0-1,0.447-1,1s0.447,1,1,1h2c0.553,0,1-0.447,1-1S515.553,346,515,346z"/>
	<path fill="#335E83" d="M515,342h-2c-0.553,0-1,0.447-1,1s0.447,1,1,1h2c0.553,0,1-0.447,1-1S515.553,342,515,342z"/>
	<path fill="#335E83" d="M512,340h3c0.553,0,1-0.447,1-1s-0.447-1-1-1h-3c-0.553,0-1,0.447-1,1S511.447,340,512,340z"/>
</g>
<g>
	<path fill="#335E83" d="M446,358.525V352v-12.5v-1.041c0-3.038-2.463-5.5-5.5-5.5s-5.5,2.462-5.5,5.5v1.041V352v6.525
		c-3,1.901-5.25,5.446-5.25,9.516c0,6.076,5.049,11,11.125,11s10.812-4.924,10.812-11C451.688,363.973,450,360.428,446,358.525z
		 M440.938,377.041c-4.963,0-8.969-4.037-8.969-9c0-3.193,1.491-6.177,4.269-7.785l0.764-0.577v-1.152V352h7v6.525v1.152
		l1.248,0.577c2.776,1.608,4.627,4.592,4.627,7.785C449.875,373.004,445.9,377.041,440.938,377.041z"/>
	<path fill="#335E83" d="M433,355c0-0.553-0.447-1-1-1h-3c-0.553,0-1,0.447-1,1s0.447,1,1,1h3C432.553,356,433,355.553,433,355z"/>
	<path fill="#335E83" d="M432,350h-2c-0.553,0-1,0.447-1,1s0.447,1,1,1h2c0.553,0,1-0.447,1-1S432.553,350,432,350z"/>
	<path fill="#335E83" d="M432,346h-2c-0.553,0-1,0.447-1,1s0.447,1,1,1h2c0.553,0,1-0.447,1-1S432.553,346,432,346z"/>
	<path fill="#335E83" d="M432,342h-2c-0.553,0-1,0.447-1,1s0.447,1,1,1h2c0.553,0,1-0.447,1-1S432.553,342,432,342z"/>
	<path fill="#335E83" d="M429,340h3c0.553,0,1-0.447,1-1s-0.447-1-1-1h-3c-0.553,0-1,0.447-1,1S428.447,340,429,340z"/>
</g>
<g>
	<path fill="#335E83" d="M379.348,185.562l-3.432-1.981l1.757-0.471c0.697-0.187,1.111-0.903,0.925-1.599
		c-0.188-0.697-0.902-1.111-1.6-0.924l-4.28,1.147l-2.229-1.288l6.217-1.666c0.695-0.188,1.109-0.903,0.924-1.6
		c-0.188-0.696-0.902-1.11-1.6-0.923l-8.74,2.341l-4.68-2.702l4.68-2.702l8.74,2.342c0.113,0.03,0.227,0.045,0.338,0.045
		c0.578,0,1.104-0.385,1.262-0.969c0.188-0.697-0.229-1.413-0.924-1.6l-6.217-1.666l2.229-1.288l4.282,1.147
		c0.112,0.03,0.228,0.045,0.338,0.045c0.576,0,1.104-0.385,1.261-0.968c0.188-0.697-0.227-1.413-0.923-1.6l-1.758-0.471l3.431-1.98
		c0.625-0.36,0.838-1.159,0.479-1.784c-0.361-0.624-1.16-0.839-1.785-0.478l-3.431,1.98l0.472-1.757
		c0.187-0.697-0.228-1.413-0.924-1.6s-1.413,0.227-1.601,0.923l-1.146,4.28l-2.229,1.288l1.666-6.216
		c0.188-0.697-0.228-1.413-0.925-1.6c-0.696-0.187-1.411,0.227-1.599,0.924l-2.344,8.74l-4.68,2.703v-5.404l6.398-6.398
		c0.511-0.51,0.511-1.337,0-1.847c-0.51-0.51-1.338-0.51-1.848,0l-4.552,4.552v-2.575l3.134-3.133c0.51-0.51,0.51-1.337,0-1.848
		c-0.511-0.51-1.336-0.51-1.848,0l-1.286,1.287v-3.961c0-0.721-0.585-1.306-1.306-1.306c-0.723,0-1.307,0.584-1.307,1.306v3.961
		l-1.287-1.287c-0.51-0.51-1.336-0.51-1.846,0c-0.511,0.511-0.511,1.338,0,1.848l3.133,3.133v2.575l-4.553-4.551
		c-0.51-0.51-1.336-0.51-1.847,0c-0.511,0.51-0.511,1.337,0,1.847l6.397,6.398v5.404l-4.68-2.703l-2.343-8.74
		c-0.187-0.696-0.899-1.111-1.599-0.923c-0.696,0.187-1.111,0.902-0.924,1.599l1.666,6.218l-2.23-1.289l-1.146-4.28
		c-0.187-0.697-0.902-1.11-1.601-0.923c-0.696,0.186-1.11,0.903-0.923,1.6l0.47,1.757l-3.429-1.98
		c-0.625-0.361-1.424-0.147-1.785,0.478c-0.359,0.625-0.146,1.424,0.479,1.784l3.432,1.98l-1.758,0.471
		c-0.696,0.187-1.11,0.903-0.924,1.6c0.156,0.583,0.684,0.968,1.262,0.968c0.111,0,0.225-0.015,0.34-0.045l4.277-1.147l2.23,1.288
		l-6.217,1.666c-0.696,0.187-1.11,0.903-0.924,1.6c0.156,0.583,0.684,0.968,1.261,0.968c0.11,0,0.226-0.015,0.339-0.045l8.74-2.342
		l4.681,2.702l-4.681,2.702l-8.74-2.342c-0.697-0.187-1.414,0.227-1.6,0.923c-0.188,0.697,0.226,1.413,0.924,1.6l6.217,1.666
		l-2.23,1.288l-4.279-1.147c-0.696-0.187-1.412,0.227-1.6,0.924c-0.188,0.696,0.228,1.412,0.924,1.599l1.758,0.471l-3.432,1.981
		c-0.625,0.36-0.839,1.159-0.479,1.784c0.242,0.419,0.681,0.653,1.133,0.653c0.221,0,0.446-0.057,0.652-0.175l3.429-1.98
		l-0.47,1.757c-0.188,0.697,0.227,1.413,0.923,1.6c0.114,0.03,0.228,0.045,0.339,0.045c0.576,0,1.104-0.385,1.261-0.968l1.147-4.28
		l2.23-1.288l-1.668,6.217c-0.187,0.697,0.229,1.414,0.924,1.6c0.113,0.03,0.229,0.044,0.34,0.044c0.576,0,1.104-0.385,1.261-0.969
		l2.343-8.74l4.68-2.703v5.404l-6.397,6.398c-0.511,0.51-0.511,1.337,0,1.847c0.255,0.255,0.589,0.383,0.924,0.383
		c0.333,0,0.668-0.127,0.923-0.383l4.553-4.552v2.575l-3.135,3.134c-0.511,0.51-0.511,1.337,0,1.847
		c0.256,0.254,0.59,0.382,0.924,0.382s0.668-0.128,0.924-0.382l1.287-1.286v3.961c0,0.721,0.584,1.306,1.307,1.306
		c0.721,0,1.306-0.584,1.306-1.306v-3.961l1.286,1.286c0.255,0.254,0.59,0.382,0.924,0.382s0.668-0.128,0.924-0.382
		c0.51-0.51,0.51-1.337,0-1.847l-3.134-3.133v-2.575l4.552,4.551c0.256,0.255,0.59,0.383,0.924,0.383s0.668-0.127,0.924-0.383
		c0.51-0.51,0.51-1.337,0-1.847l-6.398-6.398v-5.404l4.68,2.703l2.342,8.741c0.158,0.583,0.685,0.968,1.261,0.968
		c0.112,0,0.228-0.015,0.34-0.045c0.697-0.187,1.109-0.903,0.925-1.6l-1.666-6.218l2.229,1.288l1.146,4.28
		c0.156,0.584,0.685,0.968,1.262,0.968c0.111,0,0.226-0.014,0.339-0.044c0.698-0.187,1.11-0.903,0.924-1.6l-0.472-1.757l3.431,1.98
		c0.206,0.119,0.431,0.175,0.651,0.175c0.451,0,0.892-0.234,1.134-0.653C380.186,186.72,379.973,185.921,379.348,185.562z"/>
</g>
<g>
	<path fill="#335E83" d="M376.371,360.56c-2.723,3.318-6.742,5.222-11.027,5.222c-7.865,0-14.264-6.398-14.264-14.264
		c0-5.177,2.818-9.955,7.354-12.474l4.359-2.419l-4.955,0.551c-9.6,1.068-16.839,9.164-16.839,18.831
		c0,10.452,8.504,18.956,18.956,18.956c8.292,0,15.754-5.543,18.146-13.479l1.443-4.791L376.371,360.56z M359.956,372.963
		c-9.351,0-16.956-7.605-16.956-16.956c0-7.063,4.322-13.19,10.586-15.718c-2.85,2.984-4.506,6.989-4.506,11.229
		c0,8.968,7.296,16.264,16.264,16.264c3.201,0,6.272-0.932,8.883-2.637C371.154,369.901,365.785,372.963,359.956,372.963z"/>
	<polygon fill="#335E83" points="361.953,347.757 359.867,344.215 359.473,348.307 355.461,349.195 359.255,350.95 358.887,355.156 
		361.607,352.062 365.369,353.671 363.27,350.068 365.965,346.867 	"/>
	<polygon fill="#335E83" points="370.328,354.582 371.247,356.447 371.63,354.363 373.729,354.021 371.887,353.036 372.255,350.979 
		370.749,352.427 368.906,351.442 369.789,353.375 368.256,354.875 	"/>
</g>
<g>
	<path fill="#335E83" d="M100.475,360.712c-0.552,0-1,0.447-1,1c0,1.383-1.125,2.508-2.508,2.508c-1.383,0-2.508-1.125-2.508-2.508
		s1.125-2.508,2.508-2.508c0.219,0,0.411-0.085,0.576-0.204H115v-2H97v0.211c-0.012-0.001-0.021-0.007-0.033-0.007
		c-2.486,0-4.508,2.021-4.508,4.508s2.022,4.508,4.508,4.508c2.486,0,4.508-2.021,4.508-4.508
		C101.475,361.159,101.027,360.712,100.475,360.712z"/>
	<path fill="#335E83" d="M102,355.55V356h13v-2h-11.974c-0.182-0.252-0.463-0.427-0.797-0.427c-1.383,0-2.508-1.125-2.508-2.508
		c0-1.384,1.125-2.509,2.508-2.509c1.382,0,2.507,1.125,2.507,2.509c0,0.553,0.448,1,1,1c0.552,0,1-0.447,1-1
		c0-2.485-2.022-4.509-4.507-4.509c-2.486,0-4.508,2.022-4.508,4.509C97.721,353.473,99.622,355.429,102,355.55z"/>
	<path fill="#335E83" d="M134.918,345.932c-3.861-3.86-9.052-6.075-14.241-6.075c-4.262,0-8.106,1.497-10.825,4.217
		c-0.585,0.586-0.585,1.535,0,2.121l11.833,11.832c-0.095,0.053-0.188,0.111-0.264,0.196l-11.432,12.823
		c-0.585,0.585-1.381,0.893-2.282,0.867c-0.88-0.025-1.732-0.389-2.338-0.995c-0.612-0.612-0.983-1.477-1.019-2.372
		c-0.036-0.898,0.264-1.714,0.844-2.294l1.018-1.018c0.391-0.392,0.391-1.023,0-1.414c-0.391-0.392-1.023-0.392-1.414,0
		l-1.018,1.018c-0.978,0.979-1.485,2.323-1.428,3.786c0.055,1.394,0.639,2.744,1.603,3.708c0.963,0.964,2.31,1.54,3.695,1.58
		c0.055,0.002,0.109,0.002,0.163,0.002c1.379,0,2.651-0.515,3.63-1.495l11.472-12.864c0.051-0.057,0.075-0.125,0.11-0.188
		l11.632,11.632c0.281,0.281,0.663,0.439,1.061,0.439c0.398,0,0.779-0.158,1.061-0.439
		C143.067,364.707,142.215,353.229,134.918,345.932z M135.644,367.741l-22.533-22.532c2.043-1.526,4.676-2.354,7.566-2.354
		c4.399,0,8.816,1.895,12.12,5.196C138.516,353.772,139.651,362.425,135.644,367.741z"/>
</g>
<g>
	<path fill="#335E83" d="M215.127,344.295c-4.364-4.364-10.229-6.867-16.09-6.867c-4.804,0-9.134,1.687-12.194,4.746
		c-0.586,0.586-0.586,1.535,0,2.121l13.67,13.67c-0.194,0.046-0.38,0.131-0.522,0.29l-13.042,14.628
		c-0.694,0.694-1.634,1.061-2.705,1.03c-1.039-0.03-2.045-0.459-2.762-1.176c-1.523-1.523-1.616-4.103-0.199-5.52l1.16-1.16
		c0.391-0.391,0.391-1.022,0-1.414c-0.391-0.391-1.023-0.391-1.414,0l-1.16,1.16c-2.208,2.208-2.117,6.03,0.199,8.348
		c1.074,1.073,2.574,1.716,4.118,1.761c0.061,0.002,0.121,0.003,0.182,0.003c1.536,0,2.951-0.572,4.035-1.659l13.081-14.669
		c0.115-0.129,0.176-0.28,0.213-0.438l13.43,13.431c0.281,0.281,0.663,0.438,1.061,0.438s0.779-0.157,1.061-0.438
		C224.339,365.488,223.368,352.535,215.127,344.295z M216.124,369.334l-26.033-26.033c2.392-1.861,5.513-2.873,8.946-2.873
		c5.071,0,10.163,2.184,13.969,5.988C219.67,353.08,220.929,363.207,216.124,369.334z"/>
	<path fill="#335E83" d="M178,351h10c0.553,0,1-0.447,1-1s-0.447-1-1-1h-10c-0.553,0-1,0.447-1,1S177.447,351,178,351z"/>
	<path fill="#335E83" d="M180,355c0,0.553,0.447,1,1,1h11c0.553,0,1-0.447,1-1s-0.447-1-1-1h-11C180.447,354,180,354.447,180,355z"
		/>
	<path fill="#335E83" d="M190,360c0-0.553-0.447-1-1-1h-13c-0.553,0-1,0.447-1,1s0.447,1,1,1h13C189.553,361,190,360.553,190,360z"
		/>
</g>
<g>
	<path fill="#335E83" d="M527.328,180.415c3.237,0,6.055-1.781,7.539-4.414c0.516,0.108,1.049,0.168,1.597,0.168
		c4.259,0,7.713-3.454,7.713-7.713c0-4.26-3.454-7.713-7.713-7.713c-1.508,0-2.911,0.439-4.099,1.188
		c-1.111-2.894-3.91-4.952-7.195-4.952c-1.336,0-2.593,0.34-3.688,0.938c-1.755-2.284-4.506-3.762-7.606-3.762
		c-4.767,0-8.711,3.481-9.457,8.038c-3.139,0.978-5.418,3.906-5.418,7.366c0,4.26,3.454,7.713,7.714,7.713
		c0.562,0,1.108-0.062,1.636-0.178c1.123,2.87,3.91,4.907,7.18,4.907c2.687,0,5.05-1.376,6.431-3.46
		C523.436,179.711,525.298,180.415,527.328,180.415z M520.292,177.436c-1.064,1.605-2.845,2.564-4.764,2.564
		c-2.365,0-4.452-1.427-5.316-3.636l-0.622-1.589l-1.667,0.364c-0.398,0.087-0.807,0.132-1.209,0.132
		c-3.149,0-5.714-2.563-5.714-5.713c0-2.516,1.612-4.708,4.013-5.456l1.181-0.368l0.198-1.219c0.604-3.686,3.751-6.361,7.483-6.361
		c2.371,0,4.565,1.086,6.021,2.98l1.041,1.357l1.503-0.82c0.831-0.454,1.775-0.694,2.729-0.694c2.344,0,4.485,1.475,5.328,3.669
		l0.873,2.273l2.061-1.298c0.913-0.576,1.962-0.88,3.032-0.88c3.15,0,5.713,2.563,5.713,5.713s-2.562,5.713-5.713,5.713
		c-0.392,0-0.79-0.042-1.186-0.125l-1.435-0.302l-0.72,1.276c-1.181,2.095-3.402,3.396-5.797,3.396c-1.51,0-2.938-0.499-4.127-1.442
		l-1.706-1.354L520.292,177.436z"/>
	<path fill="#335E83" d="M539.997,187.339c-0.089-0.143-0.289-0.191-0.445-0.109l-0.856,0.451l0.117-0.4
		c0.047-0.158-0.057-0.322-0.229-0.364c-0.175-0.043-0.354,0.052-0.4,0.211l-0.286,0.975l-0.558,0.294l0.416-1.417
		c0.047-0.159-0.057-0.322-0.229-0.364c-0.175-0.043-0.354,0.052-0.4,0.21l-0.77,1.992L535,189.432V188.2l1.783-1.458
		c0.127-0.116,0.22-0.305,0.092-0.421c-0.127-0.116-0.473-0.116-0.601,0L535,187.358v-0.587l0.966-0.714
		c0.128-0.116,0.22-0.305,0.092-0.421c-0.127-0.116-0.471-0.116-0.599,0L535,185.93v-0.902c0-0.164,0.18-0.298,0-0.298
		s0,0.134,0,0.298v0.902l-0.463-0.293c-0.129-0.116-0.406-0.116-0.534,0c-0.127,0.116-0.021,0.305,0.107,0.421l0.89,0.714v0.587
		l-1.279-1.037c-0.129-0.116-0.405-0.116-0.533,0c-0.128,0.116-0.021,0.305,0.106,0.421L535,188.2v1.231l-1.312-0.615l-0.655-1.992
		c-0.047-0.158-0.263-0.253-0.437-0.21c-0.175,0.042-0.296,0.205-0.249,0.364l0.408,1.417l-0.562-0.294l-0.288-0.975
		c-0.046-0.159-0.228-0.254-0.4-0.211c-0.174,0.042-0.278,0.206-0.23,0.364l0.115,0.4l-0.855-0.451
		c-0.156-0.082-0.355-0.033-0.446,0.109c-0.09,0.142-0.036,0.324,0.12,0.406l0.857,0.451l-0.439,0.107
		c-0.174,0.043-0.277,0.206-0.231,0.364c0.039,0.133,0.171,0.221,0.315,0.221c0.028,0,0.057-0.003,0.084-0.01l1.07-0.262
		l0.558,0.294l-1.555,0.379c-0.175,0.043-0.277,0.206-0.229,0.364c0.039,0.134,0.171,0.222,0.314,0.222
		c0.026,0,0.057-0.004,0.085-0.011l2.185-0.533l1.17,0.615l-1.17,0.616l-2.185-0.534c-0.175-0.043-0.354,0.052-0.399,0.211
		c-0.048,0.158,0.057,0.321,0.229,0.364l1.555,0.38l-0.558,0.293l-1.07-0.261c-0.173-0.043-0.354,0.051-0.399,0.21
		c-0.046,0.158,0.059,0.322,0.231,0.364l0.439,0.107l-0.857,0.451c-0.156,0.082-0.21,0.265-0.12,0.406
		c0.062,0.096,0.17,0.149,0.283,0.149c0.056,0,0.111-0.013,0.163-0.04l0.855-0.451l-0.116,0.4c-0.046,0.158,0.058,0.322,0.23,0.364
		c0.027,0.007,0.057,0.011,0.085,0.011c0.145,0,0.275-0.088,0.314-0.222l0.286-0.975l0.558-0.293l-0.416,1.416
		c-0.047,0.159,0.057,0.322,0.23,0.365c0.027,0.007,0.058,0.01,0.085,0.01c0.144,0,0.275-0.088,0.314-0.221l0.729-1.991l1.312-0.616
		v1.231l-1.742,1.458c-0.127,0.116-0.197,0.305-0.07,0.421c0.063,0.058,0.11,0.087,0.194,0.087s0.293-0.029,0.356-0.087L535,192.53
		v0.586l-0.926,0.715c-0.127,0.116-0.198,0.305-0.071,0.421c0.063,0.059,0.111,0.087,0.195,0.087c0.083,0,0.292-0.028,0.356-0.087
		l0.444-0.293v0.902c0,0.164-0.18,0.298,0,0.298c0.181,0,0-0.134,0-0.298v-0.902l0.505,0.293c0.063,0.059,0.24,0.087,0.323,0.087
		s0.213-0.028,0.276-0.087c0.128-0.116-0.034-0.305-0.161-0.421L535,193.123v-0.587l1.321,1.037
		c0.063,0.058,0.238,0.087,0.321,0.087c0.084,0,0.214-0.029,0.278-0.087c0.127-0.116-0.035-0.305-0.162-0.421l-1.76-1.458v-1.231
		l1.354,0.616l0.677,1.991c0.04,0.133,0.217,0.221,0.361,0.221c0.027,0,0.08-0.003,0.107-0.01c0.174-0.043,0.289-0.206,0.242-0.365
		l-0.411-1.417l0.561,0.294l0.288,0.976c0.039,0.133,0.172,0.221,0.315,0.221c0.028,0,0.058-0.004,0.087-0.011
		c0.174-0.042,0.276-0.206,0.229-0.364l-0.117-0.4l0.856,0.451c0.052,0.027,0.107,0.04,0.163,0.04c0.113,0,0.223-0.054,0.282-0.149
		c0.091-0.142,0.038-0.324-0.118-0.406l-0.857-0.451l0.439-0.107c0.174-0.042,0.276-0.206,0.23-0.364
		c-0.048-0.159-0.228-0.253-0.399-0.21l-1.071,0.261l-0.557-0.293l1.554-0.38c0.175-0.043,0.277-0.206,0.231-0.364
		c-0.047-0.159-0.227-0.254-0.399-0.211l-2.186,0.534l-1.17-0.616l1.17-0.615l2.186,0.533c0.027,0.007,0.058,0.011,0.084,0.011
		c0.145,0,0.276-0.088,0.315-0.221c0.046-0.159-0.058-0.322-0.231-0.365l-1.554-0.379l0.557-0.294l1.071,0.262
		c0.027,0.007,0.056,0.01,0.083,0.01c0.145,0,0.277-0.088,0.316-0.221c0.046-0.158-0.058-0.321-0.23-0.364l-0.439-0.107l0.857-0.451
		C540.035,187.663,540.088,187.48,539.997,187.339z"/>
	<path fill="#335E83" d="M509.141,181.66c-0.057-0.091-0.185-0.121-0.283-0.069l-0.545,0.287l0.074-0.255
		c0.029-0.101-0.036-0.205-0.146-0.231c-0.111-0.027-0.227,0.032-0.255,0.134l-0.184,0.62l-0.354,0.188l0.265-0.901
		c0.029-0.102-0.036-0.205-0.146-0.232c-0.111-0.027-0.227,0.033-0.256,0.134l-0.47,1.268L506,182.992v-0.783l1.115-0.928
		c0.08-0.074,0.129-0.194,0.049-0.269c-0.082-0.073-0.287-0.073-0.368,0l-0.796,0.66V181.3l0.595-0.455
		c0.081-0.073,0.13-0.193,0.048-0.268c-0.08-0.074-0.283-0.074-0.364,0L506,180.764v-0.574c0-0.104,0.115-0.189,0-0.189
		s0,0.085,0,0.189v0.574l-0.314-0.187c-0.082-0.074-0.269-0.074-0.351,0c-0.08,0.074,0.003,0.194,0.084,0.268L506,181.3v0.373
		l-0.834-0.66c-0.082-0.073-0.27-0.073-0.352,0c-0.079,0.074,0.005,0.194,0.085,0.269L506,182.21v0.783l-0.855-0.392l-0.428-1.268
		c-0.029-0.101-0.171-0.161-0.281-0.134c-0.11,0.027-0.189,0.131-0.159,0.232l0.257,0.901l-0.358-0.188l-0.184-0.62
		c-0.029-0.102-0.146-0.161-0.256-0.134c-0.11,0.026-0.177,0.131-0.146,0.231l0.074,0.255l-0.545-0.287
		c-0.101-0.052-0.228-0.021-0.284,0.069c-0.057,0.09-0.023,0.207,0.076,0.259l0.546,0.287l-0.28,0.068
		c-0.109,0.027-0.176,0.131-0.146,0.231c0.024,0.085,0.108,0.141,0.2,0.141c0.019,0,0.036-0.002,0.055-0.006l0.681-0.167
		l0.355,0.188l-0.99,0.241c-0.11,0.027-0.176,0.131-0.146,0.231c0.024,0.085,0.108,0.142,0.2,0.142c0.019,0,0.036-0.003,0.054-0.007
		l1.392-0.34l0.744,0.392l-0.744,0.393l-1.392-0.341c-0.11-0.027-0.225,0.033-0.254,0.135c-0.029,0.101,0.035,0.204,0.146,0.231
		l0.99,0.242l-0.355,0.187l-0.681-0.166c-0.11-0.027-0.226,0.032-0.255,0.134c-0.028,0.101,0.037,0.205,0.146,0.231l0.28,0.068
		l-0.546,0.287c-0.101,0.052-0.135,0.168-0.076,0.259c0.038,0.061,0.107,0.095,0.18,0.095c0.036,0,0.071-0.008,0.104-0.025
		l0.545-0.287l-0.075,0.255c-0.029,0.101,0.037,0.205,0.147,0.231c0.018,0.005,0.034,0.007,0.054,0.007
		c0.092,0,0.176-0.056,0.2-0.141l0.183-0.62l0.354-0.187l-0.266,0.9c-0.03,0.102,0.036,0.205,0.146,0.232
		c0.019,0.005,0.037,0.007,0.055,0.007c0.091,0,0.176-0.056,0.2-0.141l0.481-1.267l0.855-0.393v0.783l-1.129,0.928
		c-0.08,0.074-0.136,0.194-0.056,0.269c0.04,0.036,0.065,0.055,0.119,0.055c0.055,0,0.203-0.019,0.244-0.055l0.82-0.66v0.373
		l-0.609,0.455c-0.08,0.073-0.136,0.193-0.056,0.268c0.041,0.037,0.065,0.055,0.12,0.055c0.053,0,0.203-0.018,0.244-0.055
		l0.301-0.187v0.574c0,0.104-0.115,0.188,0,0.188s0-0.085,0-0.188v-0.574l0.302,0.187c0.04,0.037,0.145,0.055,0.196,0.055
		s0.13-0.018,0.17-0.055c0.081-0.074-0.004-0.194-0.086-0.268l-0.58-0.451v-0.373l0.821,0.66c0.041,0.036,0.142,0.055,0.193,0.055
		c0.056,0,0.132-0.019,0.173-0.055c0.08-0.074-0.005-0.194-0.086-0.269L506,184.432v-0.783l0.842,0.393l0.42,1.267
		c0.025,0.085,0.133,0.141,0.227,0.141c0.018,0,0.049-0.002,0.065-0.007c0.11-0.027,0.184-0.131,0.153-0.232l-0.263-0.901
		l0.355,0.188l0.185,0.62c0.023,0.085,0.107,0.141,0.199,0.141c0.019,0,0.036-0.002,0.057-0.007
		c0.109-0.026,0.176-0.131,0.146-0.231l-0.075-0.255l0.546,0.287c0.032,0.018,0.067,0.025,0.104,0.025
		c0.072,0,0.142-0.034,0.18-0.095c0.059-0.091,0.023-0.207-0.074-0.259l-0.546-0.287l0.278-0.068
		c0.111-0.026,0.176-0.131,0.146-0.231c-0.029-0.102-0.145-0.161-0.254-0.134l-0.683,0.166l-0.354-0.187l0.988-0.242
		c0.111-0.027,0.178-0.131,0.147-0.231c-0.03-0.102-0.144-0.162-0.255-0.135l-1.391,0.341l-0.744-0.393l0.744-0.392l1.391,0.34
		c0.018,0.004,0.036,0.007,0.054,0.007c0.092,0,0.176-0.057,0.201-0.141c0.029-0.102-0.036-0.205-0.147-0.232l-0.988-0.241
		l0.354-0.188l0.683,0.167c0.018,0.004,0.034,0.006,0.053,0.006c0.092,0,0.177-0.056,0.201-0.141
		c0.028-0.101-0.035-0.204-0.146-0.231l-0.278-0.068l0.546-0.287C509.164,181.867,509.198,181.751,509.141,181.66z"/>
	<path fill="#335E83" d="M514,186c-0.553,0-1,0.448-1,1v4c0,0.552,0.447,1,1,1s1-0.448,1-1v-4C515,186.448,514.553,186,514,186z"/>
	<path fill="#335E83" d="M506,190c-0.553,0-1,0.448-1,1v4c0,0.552,0.447,1,1,1s1-0.448,1-1v-4C507,190.448,506.553,190,506,190z"/>
	<path fill="#335E83" d="M522,185c-0.553,0-1,0.448-1,1v4c0,0.552,0.447,1,1,1s1-0.448,1-1v-4C523,185.448,522.553,185,522,185z"/>
	<path fill="#335E83" d="M527,189c-0.553,0-1,0.448-1,1v4c0,0.552,0.447,1,1,1s1-0.448,1-1v-4C528,189.448,527.553,189,527,189z"/>
	<path fill="#335E83" d="M541,179c-0.553,0-1,0.448-1,1v4c0,0.552,0.447,1,1,1s1-0.448,1-1v-4C542,179.448,541.553,179,541,179z"/>
</g>
<g>
	<path fill="#335E83" d="M522.722,71.7c-5.11,0-9.979,1.782-13.711,5.017c-3.68,3.191-5.79,7.486-5.789,11.783
		c0,0.829,0.672,1.5,1.5,1.5h18.229l-0.035,14.146c0,0.86-0.363,1.679-1.021,2.307c-0.652,0.622-1.533,0.979-2.418,0.979l0,0
		c-1.852,0-3.476-1.535-3.476-3.285V103c0-0.552-0.447-1-1-1s-1,0.448-1,1v1.146c0,2.865,2.507,4.854,5.476,4.854c0,0,0,0,0.002,0
		c1.391,0,2.773-0.384,3.796-1.356c1.06-1.009,1.643-2.169,1.643-3.579L524.95,90h15.771c0.828,0,1.5-0.671,1.5-1.5
		C542.222,79.394,533.292,71.7,522.722,71.7z M506.331,87c0.423-2.921,2.062-5.778,4.645-8.017
		c3.187-2.762,7.356-4.283,11.746-4.283c8.188,0,15.437,5.593,16.394,12.3H506.331z"/>
	<path fill="#335E83" d="M509,70c0.553,0,1-0.448,1-1v-4c0-0.552-0.447-1-1-1s-1,0.448-1,1v4C508,69.552,508.447,70,509,70z"/>
	<path fill="#335E83" d="M505,77c0.553,0,1-0.448,1-1v-4c0-0.552-0.447-1-1-1s-1,0.448-1,1v4C504,76.552,504.447,77,505,77z"/>
	<path fill="#335E83" d="M516,69c0.553,0,1-0.448,1-1v-4c0-0.552-0.447-1-1-1s-1,0.448-1,1v4C515,68.552,515.447,69,516,69z"/>
	<path fill="#335E83" d="M524,69c0.553,0,1-0.448,1-1v-4c0-0.552-0.447-1-1-1s-1,0.448-1,1v4C523,68.552,523.447,69,524,69z"/>
	<path fill="#335E83" d="M533,71c0.553,0,1-0.448,1-1v-4c0-0.552-0.447-1-1-1s-1,0.448-1,1v4C532,70.552,532.447,71,533,71z"/>
	<path fill="#335E83" d="M541,78c0.553,0,1-0.448,1-1v-4c0-0.552-0.447-1-1-1s-1,0.448-1,1v4C540,77.552,540.447,78,541,78z"/>
	<path fill="#335E83" d="M538,70c0.553,0,1-0.448,1-1v-4c0-0.552-0.447-1-1-1s-1,0.448-1,1v4C537,69.552,537.447,70,538,70z"/>
</g>
<path fill="#335E83" d="M138.625,286H136v-38.512c0.604-0.456,1-1.174,1-1.988c0-1.381-1.119-2.5-2.5-2.5s-2.5,1.119-2.5,2.5
	c0,0.814,0.396,1.532,1,1.988v8.098l-1.293-1.293c-0.308-0.309-0.762-0.363-1.133-0.188c-0.796-3.707-2.479-6.645-4.958-6.645
	c-0.248,0-0.505,0.038-0.783,0.116c-8.729,1.403-25.16,4.042-26.212,4.192c-2.376,0.073-3.62,3.789-3.62,7.459
	c0,0.03,0.002,0.062,0.002,0.09c0,0.031,0.152,0.062,0.152,0.091c0,3.708,0.846,7.462,3.846,7.462v-0.17
	c0,0.095,3.732,0.609,7.907,1.277c0.377,0.205,1.093,0.328,1.093,0.328v-0.132c5,0.882,12.243,1.966,16.852,2.707
	c0.283,0.079,0.525,0.116,0.772,0.116c2.572,0,4.281-3.163,5.037-7.066c0.111,0.041,0.224,0.066,0.341,0.066
	c0.256,0,0.511-0.098,0.706-0.293l1.292-1.293V286h-2.625c-0.759,0-1.375,0.615-1.375,1.375v0.25c0,0.76,0.616,1.375,1.375,1.375h4
	h0.25h4c0.759,0,1.375-0.615,1.375-1.375v-0.25C140,286.615,139.384,286,138.625,286z M105.692,259.41
	c0-4.463,1.308-6.896,2.308-6.896v-0.201c1-0.223,2.96-0.478,4.797-0.771c-1.188,1.9-1.821,4.939-1.821,7.87
	c0,2.735,0.541,5.563,1.58,7.476c-1.945-0.312-3.619-0.582-5.053-0.812C106.708,265.372,105.692,263.078,105.692,259.41z
	 M113.337,259.41c0-4.758,1.663-7.794,2.663-7.794v-0.534c2-0.407,5.278-0.877,8.644-1.418c-1.444,1.789-2.525,5.396-2.525,9.566
	c0,4.168,1.127,7.776,2.571,9.566c-3.365-0.541-6.689-1.011-8.689-1.419v-0.174C115,267.205,113.337,264.169,113.337,259.41z
	 M129,259.23c0,5.408-1.754,8.6-2.473,8.771c-0.748-0.171-2.501-3.36-2.501-8.771c0-5.375,1.73-8.559,2.487-8.767
	C127.269,250.673,129,253.855,129,259.23z M97.158,259.32c0.021-3.487,0.842-5.372,1.842-5.372v-0.179c0,0-0.003-0.002,6.167-0.986
	c-0.883,1.713-1.415,4.177-1.415,6.627c0,2.271,0.354,4.553,1.114,6.238c-5.984-0.955-6.012-0.957-6.077-0.957
	C98.302,264.691,97.179,262.809,97.158,259.32z M130.99,261.598c0.072-0.785,0.113-1.578,0.113-2.367
	c0-0.961-0.059-1.931-0.167-2.881l2.064,2.064v1.172L130.99,261.598z"/>
</svg>
